<svg width="41" height="38" viewBox="0 0 41 38" fill="none" xmlns="http://www.w3.org/2000/svg">
<path d="M35.0357 6.79468H5.96429C3.77487 6.79468 2 8.56955 2 10.759V31.9018C2 34.0912 3.77487 35.8661 5.96429 35.8661H35.0357C37.2251 35.8661 39 34.0912 39 31.9018V10.759C39 8.56955 37.2251 6.79468 35.0357 6.79468Z" fill="#F79007" stroke="#F79007" stroke-width="3" stroke-linejoin="round"/>
<path d="M11.1934 6.79475V4.15189C11.1934 3.45096 11.4718 2.77874 11.9674 2.28311C12.4631 1.78748 13.1353 1.50903 13.8362 1.50903H27.0505C27.7514 1.50903 28.4237 1.78748 28.9193 2.28311C29.4149 2.77874 29.6934 3.45096 29.6934 4.15189V6.79475M20.4434 14.7233V27.9376ZM27.0505 21.3305H13.8362Z" fill="#F79007"/>
<path d="M11.1934 6.79475V4.15189C11.1934 3.45096 11.4718 2.77874 11.9674 2.28311C12.4631 1.78748 13.1353 1.50903 13.8362 1.50903H27.0505C27.7514 1.50903 28.4237 1.78748 28.9193 2.28311C29.4149 2.77874 29.6934 3.45096 29.6934 4.15189V6.79475M20.4434 14.7233V27.9376M27.0505 21.3305H13.8362" stroke="#F79007" stroke-width="3" stroke-linecap="round" stroke-linejoin="round"/>
</svg>
