<svg width="550" height="486" viewBox="0 0 550 486" fill="none" xmlns="http://www.w3.org/2000/svg">
<g clip-path="url(#clip0_99_1130)">
<path d="M428.589 214.876C428.368 214.787 428.191 214.862 428.102 215.088C428.018 215.309 428.12 215.553 428.319 215.633C428.501 215.704 428.735 215.586 428.811 215.389C428.886 215.196 428.784 214.951 428.589 214.876Z" fill="#C86217"/>
<path d="M456.118 119.063C447.339 98.4084 403.207 104.272 385.776 105.108C365.48 106.086 345.259 108.48 324.954 109.152C310.044 109.65 295.741 105.108 280.547 105.108C253.212 105.108 226.307 107.069 199.251 107.295C182.157 107.436 164.988 106.119 147.899 105.649C136.178 105.325 119.505 102.673 108.652 108.846C92.4136 118.085 96.7015 144.241 97.0071 160.51C97.5209 188.024 98.3891 215.516 98.2031 243.045C97.9152 285.601 97.0603 328.344 95.346 370.863C94.717 386.459 93.3483 404.401 109.893 410.583C119.527 414.19 131.58 412.925 141.498 414.03C151.62 415.154 161.537 413.814 171.65 413.292C186.113 412.544 200.558 412.238 215.096 411.463C250.253 409.577 285.495 413.348 320.653 411.434C340.905 410.329 361.471 411.463 381.759 411.453C399.008 411.444 434.334 415.779 448.052 402.294C457.354 393.154 453.018 380.229 453.974 368.648C454.998 356.235 456.672 344.66 456.703 331.875C456.792 299.217 457.385 266.455 458.143 233.872C458.71 209.399 457.939 185.142 458.112 160.641C458.222 145.417 462.555 134.203 456.114 119.063H456.118Z" fill="#005252"/>
<path d="M382.985 136.85H369.045C367.079 136.85 367.079 141.397 369.045 141.397H382.985C384.952 141.397 384.952 136.85 382.985 136.85Z" fill="#EDF0F4"/>
<path d="M397.093 124.814C392.465 126.445 390.6 131.96 391.858 136.69C393.297 142.093 398.174 144.895 403.246 143.456C403.556 143.372 403.818 143.235 404.039 143.066C408.929 142.276 411.871 137.739 410.511 132.205C408.991 126.017 402.71 122.834 397.093 124.814ZM402.533 138.275C401.855 138.256 401.319 138.5 400.925 138.881C398.954 139.018 397.386 138.11 396.478 135.896C395.61 133.77 396.11 131.189 397.846 129.797C400.181 127.936 404.145 129.567 405.457 131.965C407.118 135.002 406.09 138.364 402.533 138.275Z" fill="#EDF0F4"/>
<path d="M431.917 137.311C430.296 136.62 428.825 135.675 427.447 134.598C428.789 132.811 430.083 130.978 431.394 129.163C433.206 126.657 429.742 123.384 427.917 125.904C426.592 127.738 425.286 129.624 423.926 131.462C422.588 130.155 421.281 128.801 419.939 127.527C417.707 125.406 414.637 129.102 416.865 131.218C418.238 132.52 419.58 133.893 420.954 135.228C419.665 136.733 418.291 138.148 416.781 139.408C414.446 141.355 417.007 145.464 419.368 143.499C421.224 141.952 422.889 140.217 424.448 138.378C426.105 139.714 427.864 140.88 429.826 141.717C432.586 142.892 434.69 138.501 431.917 137.32V137.311Z" fill="#EDF0F4"/>
<path d="M310.918 83.3203C309.412 78.106 308.775 73.47 305.204 69.3089C301.293 64.7388 298.073 59.6609 294.516 54.7945C289.054 47.314 282.826 40.9008 277.448 33.4719C272.789 27.0352 267.402 24.7078 259.792 26.5039C236.674 31.9627 228.665 51.0566 229.405 74.3587C229.551 78.9852 230.583 86.4281 227.567 90.0955C225.485 92.6204 223.044 94.6798 221.126 97.4021C217.498 102.551 214.15 109.293 215.226 115.871C216.289 122.378 222.025 126.708 225.321 131.965C228.785 137.49 229.667 145.219 228.05 151.567C225.977 159.696 212.701 172.306 222.482 180.196C225.392 182.542 229.897 182.65 233.365 183.454C239.425 184.86 245.764 187.272 251.961 187.766C262.069 188.574 272.806 187.333 281.807 182.161C285.532 180.022 290.316 177.483 292.642 173.679C294.857 170.054 294.857 165.108 295.123 160.989C295.534 154.435 292.912 142.751 297.678 137.269C298.87 135.896 300.761 135.369 302.236 134.255C304.615 132.468 306.803 129.642 308.531 127.249C312.03 122.387 314.524 116.336 314.994 110.346C315.423 104.751 314.405 98.1215 313.736 92.5781C313.337 89.2492 311.849 86.494 310.927 83.325L310.918 83.3203Z" fill="#1F3759"/>
<path d="M329.427 145.765C326.618 141.383 322.388 136.817 322.592 131.17C322.893 122.796 330.72 118.485 332.798 110.971C334.441 105.014 330.787 94.5575 327.987 89.4984C322.388 79.3895 311.434 76.5168 310.353 63.253C309.316 50.4971 305.033 43.5619 295.461 36.2836C288.67 31.1304 277.357 28.9253 270.389 35.4326C263.231 42.1185 268.507 49.4016 273.481 55.3963C279.532 62.67 288.325 67.5881 292.776 76.0654C294.942 80.1794 297.414 84.5098 298.455 89.0658C299.505 93.6407 300.466 98.6998 298.566 103.072C296.661 107.459 294.991 112.02 292.559 116.134C291.155 118.508 288.568 121.113 288.604 124.066C288.63 126.816 289.986 130.503 290.628 133.169C292.949 142.868 292.67 152.893 296.79 162.122C299.416 168.004 301.959 173.957 306.707 178.277C313.33 184.296 326.756 187.314 333.812 180.215C342.056 171.907 335.478 155.789 330.233 147.086C329.958 146.625 329.684 146.183 329.413 145.765H329.427Z" fill="#1F3759"/>
<path d="M389.155 245.838C385.797 241.592 382.577 237.483 380.189 232.494C375.383 222.451 365.089 216.061 362.71 204.641C360.026 191.762 349.754 183.036 344.323 171.549C340.248 162.936 334.117 158.554 326.073 154.703C318.242 150.951 310.747 151.313 308.111 160.914C307.965 161.441 307.819 161.967 307.673 162.494C304.568 173.623 300.957 184.493 296.293 195.044C292.51 203.601 288.005 212.469 294.025 220.796C298.207 226.579 303.792 232.151 304.997 239.645C306.167 246.9 306.184 252.824 308.758 259.99C313.901 254.893 320.868 251.08 325.391 259.289C330.99 269.445 342.153 280.589 351.366 286.927C359.291 292.381 373.217 293.138 382.183 291.008C389.363 289.301 402.723 285.756 401.726 275.793C400.712 265.637 395.197 253.487 389.155 245.842V245.838Z" fill="#F5BF71"/>
<path d="M337.857 190.182C337.516 189.877 337.033 190.408 337.374 190.714C339.935 193.018 342.544 195.322 344.506 198.246C344.767 198.632 345.361 198.251 345.1 197.865C343.097 194.884 340.466 192.533 337.857 190.182Z" fill="#D0543B"/>
<path d="M323.786 218.553C324.513 220.076 324.566 221.854 324.628 223.528C324.645 224.007 325.341 223.974 325.323 223.499C325.252 221.68 325.159 219.804 324.375 218.153C324.171 217.726 323.587 218.13 323.791 218.553H323.786Z" fill="#D0543B"/>
<path d="M342.828 231.201C341.428 230.326 340.294 228.93 339.368 227.533C339.107 227.143 338.513 227.524 338.77 227.914C339.776 229.428 340.985 230.905 342.495 231.85C342.881 232.094 343.213 231.441 342.828 231.201Z" fill="#D0543B"/>
<path d="M341.946 213.87C341.508 213.978 341.703 214.693 342.141 214.585C343.975 214.119 345.14 215.821 345.636 217.481C345.774 217.937 346.438 217.73 346.305 217.274C345.685 215.191 344.166 213.306 341.946 213.87Z" fill="#D0543B"/>
<path d="M324.833 248.386L321.454 247.549C321.015 247.441 320.86 248.165 321.299 248.273L324.678 249.11C325.117 249.218 325.272 248.494 324.833 248.386Z" fill="#D0543B"/>
<path d="M359.815 272.939C359.217 274.1 358.424 275.449 358.721 276.832C358.822 277.302 359.491 277.09 359.385 276.625C359.141 275.478 359.93 274.25 360.422 273.296C360.634 272.873 360.027 272.52 359.81 272.939H359.815Z" fill="#D0543B"/>
<path d="M377.733 276.385C377.608 275.924 376.944 276.136 377.068 276.592L377.343 277.598C377.471 278.059 378.136 277.852 378.012 277.391L377.733 276.385Z" fill="#D0543B"/>
<path d="M353.304 239.908C352.866 239.819 352.706 240.538 353.145 240.628C354.877 240.985 356.25 241.61 356.817 243.524C356.954 243.98 357.618 243.773 357.481 243.317C356.834 241.145 355.297 240.317 353.304 239.908Z" fill="#D0543B"/>
<path d="M266.935 278.51C251.724 278.962 236.987 282.244 222.183 286.137L218.958 300.458C216.673 311.446 215.499 320.662 217.164 333.117C222.001 335.378 289.101 327.705 297.251 325.956C302.713 324.79 310.221 325.519 314.987 321.593C314.478 313.266 313.867 305 313.251 296.669C311.275 269.76 276.756 278.214 266.931 278.51H266.935Z" fill="#1F3759"/>
<path d="M251.597 318.433C247.956 326.765 245.559 335.632 241.922 343.964C241.515 344.895 242.932 345.393 243.331 344.476C246.972 336.14 249.364 327.273 253.001 318.941C253.408 318.01 251.995 317.512 251.592 318.433H251.597Z" fill="#F4F2F3"/>
<path d="M261.574 318.184C260.489 322.777 260.537 327.54 260.568 332.252C260.568 333.277 262.057 333.38 262.052 332.355C262.03 327.799 261.933 323.139 262.987 318.692C263.222 317.7 261.813 317.187 261.574 318.184Z" fill="#F4F2F3"/>
<path d="M324.604 324.997C321.109 317.117 315.55 310.304 307.342 308.79C295.36 306.585 285.486 303.829 273.912 303.947C272.423 303.961 270.908 304.027 269.358 304.144C253.305 305.357 238.125 308.023 222.303 310.572C209.12 312.687 210.236 327.545 205.661 338.364C201.12 349.103 196.487 359.978 192.598 370.952C190.489 376.9 188.297 383.257 187.473 389.524C198.454 389.364 207.977 381.08 218.555 378.682C233.78 375.231 248.552 377.238 263.887 378.014C277.349 378.696 291.404 378.607 304.879 378.033C307.745 377.911 346.535 385.542 346.765 386.736C345.011 377.572 339.979 367.637 336.976 358.803C333.144 347.518 329.423 335.858 324.604 325.006V324.997Z" fill="#1F3759"/>
<path d="M261.795 338.063C246.753 326.483 223.546 327.541 208.485 338.138C188.942 351.886 176.938 388.415 171.662 415.323C182.763 415.154 193.863 414.9 204.964 414.585C228.777 413.908 252.586 412.963 276.391 411.961C277.361 385.372 278.858 351.195 261.795 338.068V338.063Z" fill="#1F3759"/>
<path d="M277.696 285.262C273.341 281.421 267.49 281.129 262.223 282.643C258.237 283.781 253.532 286.851 254.551 291.953C254.649 292.442 254.835 292.912 255.03 293.368C255.428 294.285 256.855 293.824 256.451 292.893C254.551 288.516 258.263 285.732 261.754 284.458C266.015 282.902 271.158 282.798 275.113 285.276C276.925 286.414 279.082 288.215 279.166 290.664C279.237 292.672 277.465 294.172 276.017 295.07C271.729 297.736 265.86 297.477 261.545 295.089C260.691 294.619 259.991 296.02 260.841 296.49C265.798 299.24 272.19 299.283 277.062 296.255C278.772 295.188 280.322 293.467 280.606 291.294C280.934 288.826 279.366 286.734 277.691 285.262H277.696Z" fill="#F4F2F3"/>
<path d="M307.948 284.312C311.465 290.824 315.129 298.192 313.946 305.959C313.786 306.975 315.279 307.069 315.434 306.067C316.652 298.032 312.914 290.33 309.273 283.593C308.799 282.709 307.465 283.428 307.944 284.317L307.948 284.312Z" fill="#F4F2F3"/>
<path d="M221.467 290.81C221.37 289.79 219.886 289.954 219.983 290.975L220.09 292.037C219.961 292.122 219.85 292.249 219.797 292.456C218.477 297.576 217.72 302.795 217.02 308.047C216.896 308.982 218.234 309.387 218.358 308.442C219.026 303.434 219.753 298.45 220.962 293.56C221.343 293.528 221.702 293.236 221.653 292.714L221.472 290.815L221.467 290.81Z" fill="#F4F2F3"/>
<path d="M267.068 174.436L267.078 174.441L267.068 174.422V174.436Z" fill="#E6BEB1"/>
<path d="M267.068 174.436L267.078 174.441L267.068 174.422V174.436Z" fill="#E6BEB1"/>
<path d="M324.519 187.423C320.218 188.01 315.802 188.744 311.527 189.416C287.838 193.14 263.967 195.891 240.384 200.348C235.002 201.364 229.624 201.749 224.207 202.356C220.034 202.826 216.043 204.547 211.906 204.998C195.397 206.794 203.525 235.433 211.357 243.915C221.297 254.677 237.186 256.755 250.581 257.141C258.399 257.362 266.301 256.501 273.929 254.597C286.615 251.433 308.21 245.589 316.839 234.633C321.76 228.389 322.96 219.527 323.868 211.778C324.754 204.208 327.332 199.013 329.662 192.092C331.474 186.703 329.662 186.732 324.524 187.427L324.519 187.423Z" fill="#F5BF71"/>
<path d="M305.813 231.06C287.55 233.354 269.282 235.597 251.019 237.915C245.704 238.592 239.755 240.501 234.408 240.101C229.717 239.749 226.244 239.358 221.509 240.985C218.887 241.888 212.987 242.697 211.693 245.903C210.44 249.016 212.118 255.744 213.102 260.648C213.394 262.106 213.625 263.399 213.7 264.395C214.178 270.795 214.683 277.086 214.254 283.367C213.531 293.847 217.549 292.39 225.141 290.843C228.902 290.077 232.543 288.981 236.22 287.815C251.927 282.841 271.094 281.844 287.612 282.088C292.414 282.159 297.277 282.154 302.013 283.104C305.153 283.734 311.93 288.168 314.92 287.086C319.678 285.361 316.883 267.828 317.215 263.577C317.924 254.578 317.662 245.259 317.893 236.199C317.95 234.012 318.172 231.732 318.061 229.546C313.981 230.054 309.893 230.533 305.813 231.046V231.06Z" fill="#F5BF71"/>
<path d="M225.615 174.836C225.008 171.672 224.525 168.545 224.166 165.536C223.054 156.137 219.396 145.149 209.58 155.399C199.764 165.653 191.471 179.477 182.391 190.69C173.013 202.275 167.454 214.763 160.119 227.58C152.921 240.162 144.535 249.792 140.004 264.372C136.026 277.17 127.769 291.426 142.507 300.985C155.534 309.434 168.982 298.812 181.624 295.408C190.01 293.152 192.123 288.168 196.614 281.416C202.222 272.99 211.236 267.912 218.115 260.827C224.614 254.141 231.506 248.179 238.341 241.921C252.622 228.845 240.689 216.503 234.496 203.268C230.527 194.786 227.488 184.62 225.615 174.841V174.836Z" fill="#F5BF71"/>
<path d="M305.744 157.359C304.207 157.331 302.665 157.458 301.119 157.599C299.37 157.754 297.62 157.928 295.862 157.914C292.048 157.876 287.188 155.996 283.53 156.607C278.728 157.406 276.088 161.986 272.088 164.36C264.434 168.897 256.164 164.238 248.943 160.923C242.671 158.05 234.64 161.238 228.328 162.503C223.81 163.406 217.161 163.932 213.945 168.028C212.665 169.659 212.111 172.024 210.867 173.811C209.361 175.974 207.558 177.85 206.362 180.257C203.354 186.294 198.632 197.682 203.248 204.062C207.788 210.334 220.399 208.618 226.587 207.659C232.479 206.742 238.392 206.314 244.279 205.36C249.86 204.457 254.401 202.28 259.743 200.442C271.091 196.539 282.599 195.636 294.342 194.005C302.572 192.858 314.364 187.587 319.471 180.271C326.505 170.209 315.458 157.529 305.744 157.355V157.359Z" fill="#F5BF71"/>
<path d="M244.519 161.173C243.837 161.826 243.177 162.498 242.588 163.241C242.455 163.406 242.694 163.622 242.827 163.458C243.403 162.738 244.041 162.08 244.701 161.45C244.851 161.304 244.67 161.022 244.519 161.173Z" fill="#F4F2F3"/>
<path d="M247.484 162.606C246.457 163.542 245.527 164.548 244.822 165.79C244.716 165.978 244.999 166.119 245.106 165.935C245.784 164.746 246.683 163.782 247.671 162.879C247.826 162.738 247.64 162.461 247.484 162.606Z" fill="#F4F2F3"/>
<path d="M251.689 165.987C250.923 166.989 250.422 168.159 250.17 169.42C250.13 169.636 250.44 169.692 250.48 169.485C250.719 168.277 251.197 167.163 251.928 166.204C252.057 166.034 251.813 165.813 251.689 165.987Z" fill="#F4F2F3"/>
<path d="M268.938 166.171C268.805 166.006 268.544 166.199 268.681 166.363C269.173 166.975 269.527 167.675 269.78 168.432C269.846 168.639 270.143 168.521 270.077 168.315C269.815 167.534 269.448 166.801 268.938 166.171Z" fill="#F4F2F3"/>
<path d="M273.956 163.345C273.819 163.185 273.562 163.378 273.699 163.542C274.204 164.139 274.749 164.689 275.095 165.413C275.192 165.602 275.489 165.489 275.396 165.296C275.028 164.539 274.483 163.975 273.956 163.349V163.345Z" fill="#F4F2F3"/>
<path d="M280.143 160.011C279.695 159.743 279.283 159.414 278.774 159.268C278.579 159.212 278.521 159.546 278.716 159.602C279.186 159.739 279.584 160.063 280.005 160.317C280.182 160.425 280.32 160.119 280.143 160.011Z" fill="#F4F2F3"/>
<path d="M270.656 175.753C268.849 179.683 266.94 183.901 263.848 186.886C260.504 183.661 258.058 179.349 254.005 177.017C253.323 176.622 252.809 177.784 253.491 178.174C257.576 180.53 260.003 185.062 263.462 188.231C263.653 188.405 263.994 188.452 264.198 188.264C267.666 185.114 269.77 180.595 271.741 176.307C272.087 175.56 271.002 175.01 270.656 175.753Z" fill="#F4F2F3"/>
<path d="M236.703 185.208C236.579 185.612 236.632 186.068 236.663 186.482C236.694 186.854 237.23 186.807 237.199 186.435C237.182 186.172 237.159 185.913 237.168 185.655C237.168 185.594 237.177 185.532 237.19 185.476C237.19 185.476 237.204 185.481 237.204 185.485C237.469 185.716 237.824 185.279 237.549 185.043C237.252 184.79 236.836 184.757 236.699 185.208H236.703Z" fill="#52887E"/>
<path d="M321.299 217.34C322.207 222.733 322.46 228.234 322.181 233.702C321.893 239.495 320.71 244.972 319.084 250.488C317.512 255.833 315.687 261.099 314.278 266.497C312.825 272.073 311.944 277.786 311.957 283.583C311.957 284.397 313.14 284.481 313.14 283.663C313.131 277.725 314.079 271.923 315.581 266.224C317.042 260.69 318.934 255.297 320.524 249.806C322.083 244.427 323.102 239.053 323.39 233.415C323.665 227.966 323.368 222.451 322.464 217.081C322.331 216.277 321.166 216.536 321.304 217.34H321.299Z" fill="white"/>
<path d="M210.466 240.901C209.071 234.892 209.611 228.704 209.642 222.578C209.642 221.797 208.464 221.929 208.464 222.71C208.438 228.634 207.955 234.586 209.151 240.421C210.32 246.106 213.337 251.108 214.719 256.727C217.625 268.557 216.402 280.908 217.523 292.964C217.598 293.739 218.776 293.612 218.705 292.837C217.602 280.965 218.674 268.9 216.039 257.207C214.763 251.546 211.773 246.538 210.471 240.905L210.466 240.901Z" fill="white"/>
<path d="M217.608 226.184C217.258 225.451 216.199 226.02 216.545 226.753C219.433 232.809 226.449 235.301 232.239 236.636C232.398 236.674 232.562 236.702 232.722 236.735C232.655 236.298 232.593 235.856 232.531 235.414C227.065 234.177 220.31 231.855 217.604 226.184H217.608Z" fill="white"/>
<path d="M311.409 268.058C300.087 265.345 288.654 263.206 277.008 263.582C271.861 263.751 266.696 264.433 261.562 265.087C261.616 265.524 261.673 265.961 261.74 266.398C264.42 266.102 267.095 265.797 269.762 265.411C281.429 263.714 293.411 265.373 304.866 267.851C306.979 268.312 309.088 268.806 311.192 269.309C311.936 269.488 312.153 268.242 311.409 268.063V268.058Z" fill="#F4F2F3"/>
<path d="M237.35 268.745C234.232 269.398 231.122 270.155 228.093 271.194C225.988 271.918 223.738 272.788 222.002 274.307C221.284 274.932 220.686 275.703 220.452 276.672C220.257 277.462 221.426 277.692 221.616 276.902C222.011 275.275 224.035 274.293 225.333 273.667C227.907 272.417 230.684 271.632 233.43 270.936C237.767 269.831 242.17 269.017 246.591 268.34C246.529 267.931 246.475 267.518 246.418 267.104C243.383 267.579 240.358 268.115 237.346 268.745H237.35Z" fill="#F4F2F3"/>
<path d="M303.073 283.165C291.817 280.25 280.455 277.979 268.823 278.308C267.516 278.346 266.205 278.411 264.898 278.506C265.067 278.933 265.257 279.357 265.439 279.78C268.606 279.573 271.773 279.479 274.962 279.601C284.411 279.958 293.7 282.041 302.856 284.416C303.6 284.608 303.817 283.362 303.077 283.17L303.073 283.165Z" fill="#F4F2F3"/>
<path d="M238.575 282.267C230.456 284.087 222.15 286.644 215.143 291.544C214.505 291.99 215.183 293.029 215.825 292.578C224.108 286.79 234.239 284.256 243.864 282.465C245.796 282.107 247.731 281.797 249.671 281.51C249.539 281.106 249.406 280.697 249.277 280.288C245.689 280.824 242.119 281.468 238.571 282.262L238.575 282.267Z" fill="#F4F2F3"/>
<path d="M243.61 271.843C242.999 275.003 242.609 278.27 243.469 281.421C243.681 282.206 244.797 281.764 244.585 280.983C243.788 278.064 244.213 274.998 244.78 272.078C244.935 271.27 243.765 271.044 243.615 271.843H243.61Z" fill="white"/>
<path d="M257.115 269.995C256.955 269.201 255.839 269.647 256.003 270.432C256.592 273.272 256.742 276.202 257.256 279.06C257.402 279.855 258.581 279.761 258.435 278.957C257.903 275.985 257.726 272.948 257.115 269.995Z" fill="white"/>
<path d="M272.95 270.188C273.863 272.238 274.159 274.65 274.35 276.898C274.421 277.706 275.604 277.603 275.537 276.789C275.333 274.453 275.019 271.89 274.062 269.751C273.739 269.017 272.622 269.445 272.95 270.193V270.188Z" fill="white"/>
<path d="M291.293 269.008C291.231 268.195 290.044 268.298 290.114 269.116C290.3 271.509 290.517 273.912 291.284 276.183C291.541 276.949 292.657 276.512 292.396 275.741C291.665 273.573 291.474 271.288 291.293 269.008Z" fill="white"/>
<path d="M304.102 270.085C303.61 269.464 302.635 270.188 303.127 270.813C305.284 273.531 305.364 277.706 305.931 281.059C306.068 281.858 307.251 281.759 307.118 280.955C306.511 277.387 306.396 272.981 304.102 270.085Z" fill="white"/>
<path d="M219.181 166.692C217.617 170.98 216.931 175.466 216.439 180.022C216.302 181.277 218.113 181.644 218.251 180.384C218.725 176.007 219.345 171.667 220.847 167.539C221.276 166.359 219.615 165.508 219.185 166.692H219.181Z" fill="#F4F2F3"/>
<path d="M297.948 160.613C297.332 159.527 295.83 160.665 296.446 161.746C298.718 165.766 300.681 169.983 302.953 174.008C303.564 175.099 305.071 173.961 304.455 172.875C302.182 168.85 300.22 164.638 297.943 160.613H297.948Z" fill="#F4F2F3"/>
<path d="M283.932 135.256C277.35 134.49 270.865 135.313 264.256 134.231C257.771 133.169 251.746 132.741 247.131 139.817L249.231 140.518C252.628 152.107 258.134 156.588 267.875 156.151C274.993 155.836 285.004 154.355 290.656 147.975C297.385 140.386 289.85 135.952 283.927 135.261L283.932 135.256Z" fill="#91B0BA"/>
<path d="M286.115 112.758C284.122 109.815 276.148 114.028 273.021 114.803C269.655 115.636 266.12 114.145 262.882 113.336C260.073 112.631 258.031 112.876 255.267 113.172C254.222 113.28 253.859 112.711 253.336 114.046C252.96 115.001 253.58 116.482 253.668 117.455C254.231 123.657 254.133 129.67 253.438 135.9C252.84 141.251 251.981 146.592 252.029 151.999C252.091 158.962 255.67 161.831 262.235 163.175C270.27 164.826 280.427 162.254 285.49 155.098C286.137 154.185 286.655 153.198 287.063 152.15C290.359 143.748 286.833 131.405 286.864 122.81C286.872 120.234 287.546 114.874 286.111 112.758H286.115Z" fill="#EA7453"/>
<path d="M279.449 122.712C279.449 122.712 279.484 122.759 279.502 122.777C279.498 122.754 279.476 122.731 279.449 122.712Z" fill="#F28F77"/>
<path d="M261.77 122.853C261.77 122.853 261.796 122.815 261.814 122.796C261.792 122.815 261.774 122.834 261.77 122.853Z" fill="#F28F77"/>
<path d="M254.008 147.965C254.008 147.965 254.017 147.951 254.022 147.942C254.013 147.956 254.008 147.96 254.008 147.965Z" fill="white"/>
<path d="M288.175 132.637C288.215 132.632 288.21 132.609 288.162 132.581C288.056 132.66 288.034 132.656 288.175 132.637Z" fill="#C55644"/>
<path d="M333.84 166.354C330.753 158.662 327.594 156.259 320.463 152.963C317.681 151.675 292.875 137.222 291.746 138.985C287.794 145.177 290.762 152.883 285.265 158.206C281.336 162.01 275.622 165.047 270.178 164.835C261.895 164.511 257.842 156.146 253.456 149.902C247.879 141.961 242.998 140.612 234.161 143.607C229.058 145.337 222.817 146.118 218.073 148.765C214.246 150.899 211.743 155.446 208.571 158.648C201.564 165.724 196.775 174.62 198.091 185.279C199.818 199.267 214.888 201.829 226.046 202.816C244.198 204.424 262.984 206.079 281.199 206.362C292.118 206.531 302.944 207.678 313.876 206.841C323.346 206.117 334.318 203.79 335.661 191.941C336.609 183.605 337.074 175.212 334.225 167.346C334.101 167.012 333.977 166.678 333.84 166.345V166.354Z" fill="#F5BF71"/>
<path d="M297.429 140.527C296.357 138.2 295.307 135.882 294.749 133.315C294.213 130.856 293.66 128.349 292.083 126.389C291.724 125.942 287.02 122.9 286.913 123.281C285.443 128.491 283.719 131.518 278.541 132.76C271.861 134.368 261.691 133.282 256.411 128.152C255.313 127.085 254.564 126.412 254.17 124.908C254.108 124.668 253.576 121.762 253.771 121.701C252.447 122.124 251.392 122.74 250.418 123.817C249.492 124.842 249.111 126.187 248.863 127.55C248.283 130.762 248.557 134.133 246.945 137.062C243.756 142.845 239.229 142.845 244.181 150.133C256.38 168.089 279.813 170.966 294.731 154.896C296.308 153.194 299.626 151.656 300.268 149.258C300.725 147.566 299.418 145.055 298.785 143.55C298.35 142.525 297.885 141.524 297.425 140.522L297.429 140.527Z" fill="#F5BF71"/>
<path d="M249.253 150.01C248.655 150.664 248.102 151.313 247.805 152.183C247.544 152.944 248 153.81 248.709 154.045C249.448 154.294 250.206 153.842 250.467 153.076C250.472 153.053 250.48 153.034 250.489 153.015C250.498 153.001 250.503 152.991 250.511 152.973C250.556 152.888 250.613 152.813 250.666 152.733C250.666 152.733 250.671 152.733 250.68 152.714C250.671 152.728 250.666 152.733 250.666 152.733C250.666 152.747 250.822 152.54 250.835 152.521C250.928 152.418 251.021 152.314 251.118 152.211C251.65 151.633 251.756 150.744 251.229 150.114C250.746 149.545 249.785 149.427 249.253 150.006V150.01Z" fill="#F5BF71"/>
<path d="M261.78 156.353C261.501 156.711 261.244 157.068 261.022 157.477C260.779 157.933 260.717 158.488 260.748 159C260.796 159.809 261.518 160.416 262.263 160.34C263.02 160.265 263.556 159.56 263.534 158.77C263.565 158.728 263.591 158.69 263.618 158.648C263.72 158.511 263.822 158.384 263.924 158.253C264.415 157.632 264.336 156.678 263.751 156.161C263.166 155.643 262.271 155.733 261.78 156.358V156.353Z" fill="#F5BF71"/>
<path d="M274.789 159.419C274.78 159.381 274.767 159.353 274.762 159.33C274.762 159.301 274.753 159.259 274.74 159.193C274.674 158.794 274.647 158.389 274.612 157.985C274.541 157.176 273.859 156.57 273.097 156.645C272.335 156.72 271.759 157.454 271.826 158.262C271.914 159.339 272.043 160.369 272.552 161.323C272.924 162.028 273.93 162.099 274.497 161.666C275.165 161.159 275.205 160.298 274.824 159.598C274.975 159.87 274.798 159.452 274.785 159.419H274.789Z" fill="#F5BF71"/>
<path d="M279.928 155.483C279.472 156.062 279.516 156.875 279.959 157.416C279.959 157.421 279.959 157.425 279.959 157.43C280.025 158.234 280.712 158.845 281.474 158.765C282.236 158.69 282.811 157.957 282.745 157.153C282.679 156.41 282.43 155.784 281.899 155.286C281.328 154.755 280.406 154.872 279.928 155.483Z" fill="#F5BF71"/>
<path d="M290.784 151.934C290.642 151.694 290.451 151.478 290.252 151.289C289.685 150.758 288.764 150.876 288.285 151.487C287.803 152.103 287.882 152.987 288.409 153.523C288.463 153.598 288.507 153.678 288.56 153.758C288.702 154.002 288.888 154.219 289.092 154.407C289.659 154.938 290.58 154.821 291.058 154.209C291.546 153.593 291.461 152.709 290.934 152.169C290.881 152.093 290.828 152.014 290.784 151.934Z" fill="#F5BF71"/>
<path d="M237.394 116.661C240.247 120.055 241.368 124.724 241.864 129.153C241.908 129.544 242.488 129.534 242.444 129.139C241.926 124.531 240.761 119.745 237.797 116.209C237.549 115.913 237.151 116.364 237.399 116.661H237.394Z" fill="#F4F2F3"/>
<path d="M268.656 139.991C264.505 139.902 260.328 138.924 256.527 137.151C254.468 136.192 252.474 134.899 250.844 133.235C250.964 133.197 251.07 133.093 251.106 132.92C251.305 131.848 251.805 131.091 252.634 130.465C253.059 130.145 252.598 129.435 252.178 129.755C251.199 130.498 250.583 131.434 250.33 132.684C249.179 131.387 248.253 129.882 247.682 128.143C247.553 127.748 246.986 127.969 247.115 128.363C248.563 132.788 252.164 135.722 256.027 137.621C259.965 139.554 264.385 140.541 268.709 140.635C269.099 140.645 269.041 140 268.656 139.991Z" fill="#F4F2F3"/>
<path d="M289.898 133.606C287.094 137.565 281.739 139.417 277.238 139.445C276.848 139.445 276.906 140.09 277.291 140.09C281.938 140.061 287.466 138.11 290.359 134.02C290.589 133.691 290.133 133.272 289.894 133.606H289.898Z" fill="#F4F2F3"/>
<path d="M256.928 128.932C254.527 128.344 253.061 126.689 253.185 123.986C253.198 123.737 252.972 123.624 252.8 123.676C252.702 123.525 252.529 123.45 252.339 123.567C251.13 124.306 249.85 125.077 249.256 126.497C249.052 126.986 249.788 127.254 249.991 126.769C250.474 125.608 251.613 124.959 252.605 124.357C252.631 127.094 254.204 128.899 256.733 129.52C257.096 129.609 257.291 129.022 256.928 128.937V128.932Z" fill="#F4F2F3"/>
<path d="M289.225 125.881C288.246 125.34 287.076 125.162 286 125.467C285.699 125.552 285.672 125.89 285.805 126.102C285.681 128.805 284.064 130.87 281.65 131.678C281.291 131.796 281.455 132.393 281.81 132.275C282.084 132.181 282.35 132.073 282.603 131.951C283.666 132.905 284.724 133.855 285.783 134.81C286.164 135.148 286.7 134.551 286.319 134.208C285.331 133.319 284.339 132.431 283.347 131.542C285.114 130.413 286.244 128.528 286.385 126.229C287.214 126.041 288.104 126.201 288.853 126.61C289.296 126.854 289.668 126.13 289.225 125.886V125.881Z" fill="#F4F2F3"/>
<path d="M303.125 148.191C296.684 161.525 280.866 166.471 267.728 165.028C256.725 163.82 245.832 157.345 242.794 145.299C242.559 144.364 241.177 144.66 241.412 145.6C243.152 152.521 247.431 158.14 253.199 161.732C259.112 165.409 266.102 166.881 272.888 166.777C284.968 166.594 298.469 161.079 304.29 149.037C304.701 148.182 303.536 147.331 303.12 148.191H303.125Z" fill="#F4F2F3"/>
<path d="M253.748 141.199C252.255 146.094 250.47 150.913 248.042 155.366C247.785 155.845 248.45 156.33 248.711 155.85C251.174 151.332 252.999 146.447 254.514 141.482C254.673 140.955 253.912 140.668 253.752 141.195L253.748 141.199Z" fill="#F4F2F3"/>
<path d="M268.707 140.988C266.913 147.462 266.936 154.9 268.22 161.478C268.327 162.024 269.115 161.85 269.013 161.309C267.76 154.891 267.728 147.594 269.474 141.275C269.624 140.743 268.862 140.456 268.712 140.988H268.707Z" fill="#F4F2F3"/>
<path d="M290.693 137.828C290.613 137.283 289.82 137.452 289.9 138.002C290.525 142.173 292.208 146.437 295.446 149.028C295.867 149.362 296.314 148.647 295.898 148.313C292.824 145.859 291.282 141.768 290.689 137.828H290.693Z" fill="#F4F2F3"/>
<path d="M286.315 142.605C286.351 142.05 285.549 141.994 285.509 142.549C285.213 147.269 284.823 152.921 288.384 156.447C288.765 156.823 289.376 156.259 288.995 155.883C285.593 152.517 286.032 147.114 286.315 142.605Z" fill="#F4F2F3"/>
<path d="M261.512 145.13C260.826 149.413 259.781 153.621 259.089 157.909C258.996 158.455 259.803 158.511 259.891 157.966C260.582 153.678 261.628 149.47 262.314 145.186C262.403 144.641 261.597 144.589 261.508 145.13H261.512Z" fill="#F4F2F3"/>
<path d="M277.279 144.975C277.31 144.425 276.503 144.364 276.472 144.918C276.162 150.419 277.367 155.751 279.152 160.876C279.334 161.393 280.056 161.008 279.874 160.491C278.138 155.511 276.973 150.321 277.274 144.975H277.279Z" fill="#F4F2F3"/>
<path d="M261.002 133.22C259.128 133.653 258.158 135.482 258.433 137.452C258.512 138.002 259.301 137.828 259.221 137.283C259.013 135.778 259.731 134.396 261.161 134.067C261.671 133.949 261.507 133.107 261.002 133.225V133.22Z" fill="#F4F2F3"/>
<path d="M269.505 135.726C268.934 136.356 268.898 137.386 269.43 138.059C269.766 138.482 270.356 137.894 270.019 137.471C269.78 137.165 269.797 136.643 270.054 136.356C270.418 135.962 269.868 135.327 269.505 135.726Z" fill="#F4F2F3"/>
<path d="M277.202 134.227C276.723 134.001 276.462 134.819 276.936 135.04C278.048 135.562 278.965 136.69 279.301 137.932C279.443 138.458 280.232 138.294 280.09 137.758C279.673 136.201 278.588 134.875 277.206 134.222L277.202 134.227Z" fill="#F4F2F3"/>
<path d="M303.971 205.741C303.847 205.224 303.085 205.388 303.209 205.91C303.922 208.915 304.374 211.985 305.233 214.942C305.384 215.45 306.146 215.29 306 214.778C305.136 211.816 304.684 208.745 303.971 205.741Z" fill="#D0543B"/>
<path d="M270.192 222.183C270.112 221.656 269.346 221.821 269.43 222.347C269.785 224.665 269.798 226.979 270.595 229.198C270.777 229.696 271.472 229.325 271.295 228.827C270.52 226.687 270.538 224.416 270.197 222.178L270.192 222.183Z" fill="#D0543B"/>
<path d="M289.104 251.992C289.126 251.456 288.351 251.4 288.329 251.936C288.262 253.544 288.71 255.011 289.091 256.544C289.219 257.061 289.981 256.896 289.853 256.379C289.489 254.921 289.038 253.525 289.104 251.992Z" fill="#D0543B"/>
<path d="M315.094 309.754C299.36 306.063 284.016 301.582 267.755 302.362C250.023 303.218 232.872 309.034 215.415 311.978C214.533 312.128 214.91 313.557 215.782 313.407C232.721 310.553 249.275 305.212 266.435 303.928C282.979 302.692 298.731 307.431 314.722 311.183C315.594 311.39 315.966 309.956 315.089 309.754H315.094Z" fill="#F4F2F3"/>
<path d="M318.035 226.184C315.271 231.972 308.298 234.271 302.775 235.489C296.87 236.791 290.54 237.28 284.538 236.434C283.785 236.33 283.541 237.572 284.299 237.675C290.585 238.559 297.216 238.061 303.399 236.631C309.189 235.296 316.205 232.799 319.093 226.748C319.443 226.015 318.38 225.451 318.03 226.179L318.035 226.184Z" fill="white"/>
<path d="M166.021 331.151C153.924 323.064 136.01 328.927 143.093 347.438C147.815 359.78 153.224 371.803 158.646 383.802C162.969 393.365 164.71 403.831 173.454 400.559C178.76 398.575 185.112 394.202 187.872 392.293C183.744 377.906 178.087 339.224 166.025 331.151H166.021Z" fill="#EA7453"/>
<path d="M219.221 316.364C225.241 329.83 221.059 346.874 214.672 359.296C214.317 359.987 215.367 360.481 215.721 359.79C222.237 347.114 226.432 329.666 220.293 315.932C219.978 315.222 218.902 315.645 219.221 316.36V316.364Z" fill="#EDF1F5"/>
<path d="M171.487 360.636C170.854 358.074 167.222 359.381 167.855 361.925L170.034 370.783C170.668 373.341 174.296 372.034 173.671 369.49L171.487 360.636Z" fill="#78B18B"/>
<path d="M150.454 373.914L149.936 375.146C151.645 378.061 152.168 385.001 155.118 386.35C159.087 388.151 168.77 384.596 172.814 383.106C183.702 379.109 189.319 375.16 183.871 363.462C176.083 370.468 160.119 376.044 150.449 373.919L150.454 373.914Z" fill="#F5BF71"/>
<path d="M199.775 275.694C198.717 263.45 196.183 246.576 183.009 242.913C166.07 238.207 144.605 245.372 137.367 264.01C135.072 269.911 134.031 276.145 133.26 282.417C130.399 305.762 135.692 329.722 139.289 352.775C140.29 359.188 142.053 366.434 144.724 373.232C146.753 366.706 152.055 361.863 157.366 358.709C172.741 350.165 194.956 354.449 199.633 373.251C203.695 360.66 205.108 346.169 204.776 337.508C203.979 316.82 201.556 296.292 199.775 275.694Z" fill="#F5BF71"/>
<path d="M157.365 358.709C152.054 361.864 146.756 366.706 144.723 373.233C148.497 382.843 154.091 391.565 161.94 395.81C167.486 398.81 174.162 399.572 182.113 396.821C190.423 393.949 196.057 384.333 199.636 373.251C194.959 354.449 172.744 350.166 157.369 358.709H157.365Z" fill="#EA7453"/>
<path d="M315.18 318.334C315.423 317.587 314.311 317.291 314.068 318.033C309.368 332.402 315.312 349.258 323.082 361.102C323.507 361.746 324.499 361.13 324.074 360.486C316.464 348.882 310.568 332.426 315.18 318.334Z" fill="#EDF1F5"/>
<path d="M375.455 277.749C371.433 276.432 361.395 273.672 358.924 278.393C353.785 288.243 375.84 297.092 383.818 291.153C390.839 285.925 383.858 280.494 375.455 277.749Z" fill="#B03718"/>
<path d="M342.744 345.195C328.977 332.877 306.665 328.269 291.321 336.831C272.043 347.584 272.88 386.219 271.596 412.008C304.494 410.579 337.393 409.036 370.3 407.993C365.879 384.535 357.251 358.177 342.744 345.195Z" fill="#1F3759"/>
<path d="M336.449 237.699C336.343 237.751 336.227 237.798 336.134 237.859C335.736 238.066 335.342 238.287 334.947 238.484C334.934 243.322 340.573 246.35 345.831 246.708C349.893 246.976 354.282 246.266 358.451 246.355C358.765 246.275 359.102 246.204 359.416 246.129C360.847 245.861 362.247 245.673 363.602 245.574C363.673 245.523 363.735 245.485 363.806 245.447C364.639 239.96 365.972 234.596 366.251 229.311C353.343 233.787 340.502 237.896 336.444 237.699H336.449Z" fill="#EA7453"/>
<path d="M401.766 265.317C399.666 263.267 398.333 260.493 396.061 258.636C394.271 257.173 392.008 256.854 390.67 254.79C389.589 253.125 390.532 250.088 388.437 249.683C380.73 248.193 373.784 272.05 371.184 277.1C369.341 280.673 364.792 284.176 365.062 288.539C365.35 293.217 371.915 297.242 375.339 298.935C382.9 302.677 391.387 303.223 399.56 303.218C408.561 303.218 412.946 297.764 417.522 289.898C419.484 286.527 421.42 284.674 419.949 280.537C417.114 272.553 407.152 270.574 401.766 265.317Z" fill="#B03718"/>
<path d="M230.142 307.111C225.043 312.189 214.456 324.433 215.807 332.529C217.194 340.851 224.117 343.987 230.921 339.215C232.764 337.922 234.576 335.999 236.268 333.761C240.201 328.547 243.501 321.597 245.131 316.698C250.646 300.12 239.417 297.877 230.146 307.111H230.142Z" fill="#EA7453"/>
<path d="M250.65 299.56C247.665 300.181 236.768 299.974 235.027 302.057C231.909 305.785 236.29 313.482 237.503 317.582C237.658 318.104 254.296 312.119 255.558 311.587C264.17 307.967 269.171 305.028 269.379 294.318C264.506 293.119 256.338 298.38 250.65 299.56Z" fill="#EA7453"/>
<path d="M238.895 356.033C231.515 355.201 214.807 367.431 209.124 372.099C204.255 376.096 192.118 390.883 205.296 392.195C215.724 393.225 227.466 385.025 236.693 379.194C237.814 378.489 238.895 377.821 239.936 377.201C244.844 374.295 248.653 373.75 248.374 366.608C248.157 361.022 244.135 356.626 238.895 356.033Z" fill="#EA7453"/>
<path d="M232.917 359.414C231.207 346.174 232.244 289.08 208.457 305.672C205.361 297.228 195.332 304.215 189.454 303.491C186.415 303.115 183.983 300.228 180.528 300.373C160.91 301.22 155.182 336.958 153.955 352.286C152.471 370.858 152.95 397.762 174.043 403.578C192.058 408.543 212.297 398.02 226.99 387.883C236.213 381.522 238.197 379.255 234.937 368.836C233.949 365.672 233.32 362.54 232.917 359.409V359.414Z" fill="#EA7453"/>
<path d="M220.553 344.49C220.434 344.429 220.31 344.349 220.19 344.307C219.725 344.077 219.264 343.856 218.813 343.63C214.72 347.067 216.217 354.595 219.69 359.846C222.383 363.899 226.135 367.567 229.058 371.592C229.351 371.831 229.652 372.104 229.944 372.349C231.198 373.515 232.358 374.709 233.421 375.927C233.514 375.959 233.59 375.992 233.674 376.03C238.901 372.903 244.389 370.336 249.053 366.833C235.999 357.764 223.304 348.487 220.558 344.49H220.553Z" fill="#EA7453"/>
<path d="M217.948 303.162C216.964 302.936 216.787 304.591 217.757 304.807C228.822 307.342 228.122 318.993 225.336 328.932C225.828 329.04 226.311 329.2 226.78 329.407C229.814 318.372 230.169 305.955 217.948 303.157V303.162Z" fill="#CD4F25"/>
<path d="M216.033 357.331C215.187 358.916 214.279 360.453 213.278 361.915C212.636 362.851 211.015 365.385 209.646 364.939C207.936 364.384 207.909 359.734 207.794 358.323C207.706 357.256 206.173 357.505 206.257 358.563C206.474 361.295 207.254 368.644 211.48 366.133C213.903 364.694 215.772 361.812 217.3 358.76C216.8 358.276 216.392 357.82 216.033 357.336V357.331Z" fill="#CD4F25"/>
<path d="M189.649 276.634C179.877 274.467 174.15 267.014 168.857 258.556C168.387 257.799 167.235 258.509 167.714 259.271C173.189 268.021 179.2 275.76 189.295 277.998C190.127 278.181 190.482 276.818 189.645 276.634H189.649Z" fill="#EDF1F5"/>
<path d="M182.365 280.88C177.98 279.493 174.046 277.405 170.742 273.982C170.126 273.348 169.191 274.349 169.803 274.984C173.267 278.562 177.422 280.791 182.015 282.243C182.835 282.502 183.184 281.139 182.365 280.88Z" fill="#EDF1F5"/>
<path d="M155.686 358.191C155.819 357.298 154.543 356.917 154.41 357.815C153.174 366.128 154.897 374.507 157.719 382.255C158.024 383.097 159.305 382.73 158.995 381.879C156.266 374.394 154.485 366.236 155.686 358.191Z" fill="#CD4F25"/>
<path d="M355.651 298.549C339.39 298.366 323.948 291.478 308.821 285.836C308.015 285.535 307.669 286.903 308.471 287.199C323.718 292.888 339.261 299.781 355.651 299.965C356.505 299.974 356.505 298.559 355.651 298.549Z" fill="#CD4F25"/>
<path d="M207.442 307.398C211.495 317.596 207.951 330.404 204.611 340.259C202.79 345.633 200.478 350.838 197.732 355.737C197.231 356.63 196.695 357.5 196.155 358.361C195.039 360.133 194.503 360.542 192.793 358.836C189.643 355.69 187.814 351.275 188.155 346.672C188.222 345.76 186.897 345.769 186.831 346.672C186.357 353.099 189.807 358.408 194.441 362.146C194.658 362.32 195.074 362.258 195.242 362.037C201.076 354.214 204.912 344.575 207.628 335.068C210.152 326.229 212.101 315.518 208.589 306.679C208.257 305.842 207.114 306.561 207.446 307.393L207.442 307.398Z" fill="#CD4F25"/>
<path d="M185.838 303.599C185.116 303.105 184.452 304.328 185.17 304.822C193.298 310.403 192.106 321.315 189.834 329.971C187.641 338.322 183.92 346.136 180.142 353.781C176.492 347.857 173.657 342.441 175.013 334.984C176.306 327.87 180.009 321.546 179.544 314.122C179.486 313.214 178.162 313.21 178.22 314.122C178.738 322.397 174.096 329.732 173.272 337.866C172.594 344.575 176.333 350.231 179.633 355.526C179.894 355.944 180.532 356.024 180.775 355.526C185.17 346.658 189.449 337.602 191.734 327.818C193.776 319.082 193.621 308.954 185.834 303.604L185.838 303.599Z" fill="#CD4F25"/>
<path d="M348.776 198.321C348.692 197.837 347.926 197.95 347.062 198.345C345.919 198.867 344.604 199.877 344.484 200.639C344.205 202.398 345.667 204.857 346.345 206.38C347.191 208.265 347.922 209.925 347.961 212.079C347.979 213.108 348.316 220.523 349.06 220.424C349.977 220.302 352.391 219.841 353.086 219.183C354.464 217.885 353.56 216.583 353.064 214.918C351.434 209.431 349.782 204.029 348.772 198.316L348.776 198.321Z" fill="#1F3759"/>
<path d="M356.218 237.84C352.005 217.18 348.59 204.655 341.968 180.116C337.055 161.911 325.636 162.738 315.926 165.019C291.705 170.703 285.911 173.03 258.541 179.923C225.492 188.241 232.845 202.666 236.668 217.852C239.631 229.63 241.886 241.625 244.911 253.459C245.824 257.032 246.732 260.606 247.64 264.184C253.518 287.317 259.382 310.454 266.04 333.342C269.305 344.561 271.533 356.146 274.722 367.101C277.446 376.444 284.773 384.427 294.372 384.122C310.301 383.619 328.249 378.588 343.288 373.576C354.977 369.678 372.399 366.692 376.833 355.643C381.214 344.735 374.37 331.739 372.275 320.911C366.928 293.217 361.848 265.467 356.213 237.84H356.218Z" fill="#B03718"/>
<path d="M272.969 196.144C269.115 185.622 258.626 189.477 251.228 193.187C241.231 198.199 246.321 208.284 248.721 216.498C250.347 222.056 252.265 229.809 258.737 231.097C264.925 232.329 276.65 228.873 278.369 221.877C278.927 219.625 278.984 217.265 278.727 214.872C278.028 208.416 275.002 201.697 272.969 196.149V196.144Z" fill="#9C2C16"/>
<path d="M263.081 194.536C256.689 191.212 249.646 198.575 254.828 204.466C261.406 211.938 271.944 199.153 263.081 194.536Z" fill="#1B2125"/>
<path d="M268.562 212.991C263.069 208.397 255.069 214.571 258.963 221.553C263.897 230.406 276.18 219.366 268.562 212.991Z" fill="#1B2125"/>
<path d="M265.421 215.878C263.096 214.655 260.531 217.359 262.418 219.522C264.814 222.268 268.646 217.57 265.421 215.878Z" fill="#EDF1F5"/>
<path d="M260.786 197.945C258.461 196.723 255.896 199.426 257.783 201.589C260.18 204.335 264.011 199.638 260.786 197.945Z" fill="#EDF1F5"/>
<path fill-rule="evenodd" clip-rule="evenodd" d="M330.655 111.427C330.655 111.427 330.655 111.381 330.655 111.362L330.633 111.423H330.65L330.655 111.427Z" fill="#1A417D"/>
<path d="M266.254 97.6414H266.263L266.254 97.6278V97.6414Z" fill="#B5C5A7"/>
<path d="M266.254 97.6414H266.263L266.254 97.6278V97.6414Z" fill="#B5C5A7"/>
<path d="M298.359 86.5552C298.585 83.9693 298.869 81.7453 298.346 79.1499C298.116 78.0215 297.81 76.8273 297.438 75.6189C296.043 71.0864 293.717 66.2341 290.975 63.0134C287.901 59.4071 283.538 57.7004 279.162 56.7647C269.873 54.79 260.318 56.8118 252.655 62.8488C248.788 65.9003 245.351 70.4375 243.583 75.2616C240.593 83.4098 240.841 91.1113 243.224 99.4805C245.466 107.332 247.911 113.906 253.554 119.463C259.508 125.321 265.975 130.766 274.83 129.877C280.056 129.356 282.28 125.848 285.717 122.162C290.453 117.084 294.081 111.479 296.561 104.756C297.615 101.888 298.204 98.6012 298.652 95.5592C299.099 92.4842 298.08 89.6678 298.364 86.56L298.359 86.5552Z" fill="#EA7453"/>
<path d="M250.356 82.7842C250.378 82.6854 250.848 82.7324 251.574 82.8641C253.798 83.2685 258.32 84.4674 258.794 84.5379C261.753 84.9846 262.63 82.2341 262.874 79.2202C260.894 79.6763 259.184 80.2922 257.155 80.2687C255.167 80.2358 251.056 79.6105 250.352 82.7889L250.356 82.7842Z" fill="#1F3759"/>
<path d="M251.522 103.99C251.478 104.116 251.411 104.305 251.429 104.248C249.746 108.64 258.149 110.727 259.354 106.613C260.891 101.385 252.616 100.966 251.522 103.99Z" fill="#E75E4C"/>
<path d="M251.475 104.088C251.452 104.144 251.448 104.196 251.426 104.252C251.43 104.234 251.448 104.187 251.475 104.088Z" fill="#E75E4C"/>
<path d="M283.176 104.939C283.163 105.113 283.136 105.414 283.158 105.043C282.361 109.796 291.172 109.561 291.34 105.32C291.548 99.9977 283.5 101.808 283.176 104.939Z" fill="#E75E4C"/>
<path d="M282.234 120.248C282.252 120.271 282.278 120.304 282.292 120.323C282.292 120.299 282.265 120.271 282.234 120.248Z" fill="#F28F77"/>
<path d="M295.713 62.5242C290.513 56.7363 285.689 50.1397 277.813 48.6634C269.038 47.0177 262.42 49.4157 255.413 55.0766C250.42 59.106 246.545 64.767 244.693 71.1755C243.687 74.6501 241.619 78.4586 241.774 82.1448C244.821 82.2764 246.828 76.2864 247.86 73.8649C249.623 69.7509 251.506 64.8281 255.218 62.2703C259.479 59.3317 266.323 60.7611 271.089 61.0103C275.279 61.2265 279.682 60.6059 283.766 61.9036C286.699 62.8346 288.307 65.2372 289.893 67.8043C290.331 68.5143 290.765 69.2337 291.226 69.9389C293.157 72.9011 293.334 76.8271 295.248 79.8221C298.73 85.2668 300.324 77.5182 300.262 74.1988C300.187 69.986 298.455 65.5616 295.717 62.5148L295.713 62.5242Z" fill="#DE6147"/>
<path d="M255.379 47.1964C247.915 53.5062 241.009 62.9192 239.299 66.6618C237.461 70.6865 236.442 75.3554 236.553 79.8832C236.628 83.3061 236.73 89.3291 239.645 91.6659C242.05 93.5889 242.75 89.7241 243.166 87.4813C244.956 77.7674 247.849 57.5592 259.875 57.357C263.946 57.2912 266.612 61.4287 270.355 61.33C277.004 61.1654 275.533 50.356 273.731 46.3501C269.93 37.9245 261.053 42.41 255.383 47.1964H255.379Z" fill="#1F3759"/>
<path d="M289.299 26.363C287.704 25.7988 286.052 25.4226 284.369 25.2628C275.328 24.4118 267.957 37.5438 267.346 45.7955C267.045 49.8578 266.912 56.6989 270.017 59.7786C274.123 63.8503 277.428 59.4824 281.911 59.0498C292.617 58.0201 293.698 76.8931 297.498 83.927C297.498 83.9317 297.498 83.9364 297.498 83.9411C304.887 97.6044 308.643 71.5613 309.516 66.8266C310.366 62.1859 310.45 57.4324 309.764 52.8905C308.107 41.9212 299.819 30.0774 289.295 26.3583L289.299 26.363Z" fill="#1F3759"/>
<path d="M262.303 120.408C262.303 120.408 262.334 120.366 262.351 120.342C262.325 120.366 262.307 120.384 262.303 120.408Z" fill="#F28F77"/>
<path d="M292.281 131.147C292.325 131.137 292.321 131.109 292.268 131.081C292.144 131.17 292.121 131.166 292.281 131.147Z" fill="#C55644"/>
<path d="M286.307 79.8598C285.757 79.8034 279.547 79.3238 279.56 78.863C279.467 81.1387 279.618 82.8549 281.226 83.5319C281.771 83.7576 282.471 83.8657 283.383 83.8422C283.915 83.8281 290.727 82.6715 290.67 83.2028C290.993 80.0056 289.089 80.1842 286.307 79.8598Z" fill="#1F3759"/>
<path d="M274.839 122.651C272.349 121.978 269.878 121.959 267.49 122.97C267.136 123.126 267.37 123.779 267.729 123.619C270.019 122.646 272.385 122.693 274.768 123.342C275.149 123.445 275.22 122.749 274.843 122.651H274.839Z" fill="#D0432D"/>
<path d="M256.263 89.4419C255.483 89.5548 254.947 89.6676 254.416 89.7005C254.247 90.3306 254.15 91.0781 254.154 91.8963C254.141 94.4728 255.098 96.7861 256.267 97.0541C257.446 97.3127 258.402 95.4414 258.398 92.846C258.407 91.3414 258.083 89.9356 257.583 88.967C257.153 89.1927 256.71 89.3761 256.258 89.4419H256.263Z" fill="#161411"/>
<path d="M283.323 88.2527C282.748 88.7887 282.499 89.7291 282.473 91.2713C282.42 94.0359 283.341 96.5232 284.506 96.8147C285.684 97.0968 286.668 95.0938 286.712 92.3104C286.739 91.055 286.756 88.8169 286.331 87.6603C284.887 87.571 283.926 87.6979 283.328 88.2574L283.323 88.2527Z" fill="#161411"/>
<path d="M239.578 37.8072C230.705 42.2363 224.947 52.3451 227.791 62.7925C227.91 63.2297 228.535 63.0275 228.42 62.5903C225.651 52.4203 231.325 42.697 239.928 38.4043C240.309 38.2162 239.963 37.6191 239.582 37.8072H239.578Z" fill="#1F3759"/>
<path d="M226.963 80.7109C226.816 86.7668 221.882 90.6552 217.984 94.2802C214.05 97.9335 210.307 102.222 211.012 108.216C211.069 108.663 211.72 108.649 211.667 108.198C210.174 95.5591 227.321 92.7851 227.614 80.6921C227.627 80.2454 226.971 80.2642 226.963 80.7109Z" fill="#1F3759"/>
<path d="M213.513 112.909C213.566 112.467 212.928 112.293 212.879 112.739C212.211 118.231 214.939 122.905 217.77 127.216C220.972 132.092 224.525 137.094 224.503 143.329C224.503 143.78 225.158 143.762 225.158 143.315C225.172 137.574 222.248 132.774 219.258 128.255C216.259 123.718 212.8 118.795 213.513 112.909Z" fill="#1F3759"/>
<path d="M314.544 66.3705C312.755 63.3519 311.586 59.6281 312.609 56.0924C312.733 55.6598 312.099 55.4952 311.975 55.9231C309.778 63.5118 316.321 71.3309 321.751 75.191C322.101 75.4402 322.416 74.829 322.066 74.5751C319.058 72.4405 316.471 69.6288 314.544 66.3658V66.3705Z" fill="#1A417D"/>
<path d="M329.145 80.5791C328.83 80.2782 328.379 80.786 328.693 81.0869C331.767 84.0302 334.403 87.4531 336.064 91.506C337.672 95.4179 338.141 99.7013 337.871 103.933C337.588 108.338 336.365 112.401 334.283 116.2C332.352 119.731 329.973 122.952 327.971 126.431C327.741 126.816 328.321 127.155 328.543 126.774C330.651 123.116 333.154 119.726 335.156 115.998C337.229 112.137 338.27 107.967 338.553 103.547C338.828 99.2593 338.186 94.943 336.564 91.003C334.908 86.9547 332.21 83.513 329.145 80.5838V80.5791Z" fill="#1F3759"/>
<path d="M333.458 137.631C332.617 135.698 331.819 133.376 332.488 131.255C332.625 130.808 331.983 130.569 331.846 131.015C330.535 135.176 333.737 139.963 335.607 143.339C337.312 146.404 339.403 149.757 340.568 153.302C340.833 153.405 341.095 153.495 341.361 153.598C340.386 150.415 338.663 147.401 337.121 144.632C335.846 142.328 334.521 140.057 333.463 137.631H333.458Z" fill="#1A417D"/>
<path d="M289.787 42.2643C289.375 42.1609 289.215 42.8426 289.627 42.9461C293.003 43.8159 296.36 45.2076 298.703 48.0569C301.073 50.9391 301.614 54.9262 301.547 58.6218C301.538 59.0779 302.19 59.0544 302.203 58.6077C302.269 54.7805 301.671 50.7463 299.301 47.7325C296.892 44.6763 293.339 43.1765 289.791 42.2596L289.787 42.2643Z" fill="#EDF1F5"/>
<path d="M239.436 52.11C235.224 55.0815 234.657 60.2958 235.667 65.2139C235.76 65.6559 236.384 65.449 236.296 65.007C235.352 60.4134 235.831 55.4906 239.786 52.7071C240.136 52.4579 239.795 51.8608 239.436 52.11Z" fill="#F4F2F3"/>
<path d="M231.763 95.2721C229.199 97.9098 226.426 100.566 224.844 104.041C223.25 107.539 223.861 111.244 225.62 114.531C225.828 114.921 226.386 114.554 226.178 114.164C224.326 110.708 224.003 107.107 225.814 103.566C227.365 100.524 229.938 98.1261 232.242 95.7517C232.547 95.4367 232.073 94.9571 231.768 95.2721H231.763Z" fill="#EDF1F5"/>
<path d="M228.561 114.921C228.313 114.559 227.751 114.926 228.003 115.292C229.957 118.104 230.506 121.72 230.705 125.133C230.905 128.589 230.643 132.078 230.196 135.501C230.138 135.943 230.772 136.117 230.829 135.67C231.281 132.172 231.525 128.645 231.356 125.119C231.188 121.602 230.568 117.813 228.561 114.921Z" fill="#EDF1F5"/>
<path d="M312.068 83.6683C311.647 83.6307 311.669 84.3312 312.081 84.3641C321.024 85.1493 326.876 97.374 323.669 105.936C323.509 106.35 324.081 106.693 324.24 106.274C327.646 97.1953 321.542 84.4958 312.068 83.6636V83.6683Z" fill="#EDF1F5"/>
<path d="M319.712 114.333C316.39 116.835 315.549 121.443 315.509 125.524C315.473 129.962 316.377 134.763 318.423 138.656C318.632 139.051 319.185 138.684 318.982 138.289C317.103 134.716 316.306 130.428 316.178 126.37C316.049 122.336 316.74 117.427 320.058 114.931C320.403 114.672 320.058 114.075 319.712 114.333Z" fill="#EDF1F5"/>
<path d="M302.898 119.491C302.982 119.049 302.349 118.885 302.26 119.322C301.498 123.215 301.986 127.306 303.873 130.752C304.085 131.142 304.644 130.775 304.426 130.38C302.632 127.094 302.167 123.196 302.898 119.486V119.491Z" fill="#EDF1F5"/>
<path d="M291.87 34.7791C291.48 34.6145 291.161 35.2257 291.555 35.3903C293.677 36.2884 295.365 37.9105 296.778 39.7912C297.039 40.1391 297.602 39.7724 297.336 39.4244C295.848 37.445 294.102 35.7194 291.87 34.7791Z" fill="#EDF1F5"/>
<path d="M241.672 74.6174C239.75 80.8661 237.664 87.143 233.881 92.4137C233.624 92.7663 234.098 93.2506 234.35 92.8979C238.208 87.5238 240.343 81.1576 242.306 74.7867C242.439 74.3588 241.801 74.1895 241.668 74.6174H241.672Z" fill="#F4F2F3"/>
<path d="M309.88 93.1942C315.621 100.534 313.623 111.042 310 118.908C309.81 119.317 310.381 119.651 310.571 119.242C314.345 111.047 316.281 100.294 310.328 92.6864C310.058 92.3384 309.606 92.8509 309.88 93.1894V93.1942Z" fill="#F4F2F3"/>
<path d="M302.408 42.8144C302.301 42.3771 301.677 42.584 301.779 43.0166C302.301 45.2593 303.555 47.093 304.574 49.0913C304.778 49.4909 305.331 49.1195 305.128 48.7245C304.135 46.778 302.917 45.0007 302.403 42.8144H302.408Z" fill="#F4F2F3"/>
<path d="M247.87 137.113C247.502 141.867 245.11 145.915 242.568 149.695C242.311 150.076 242.873 150.485 243.13 150.1C245.744 146.211 248.171 142.05 248.548 137.16C248.583 136.695 247.901 136.648 247.87 137.113Z" fill="#F4F2F3"/>
<path d="M295.12 137.001C295.031 136.38 294.136 136.578 294.229 137.194C294.934 141.895 296.834 146.705 300.484 149.625C300.958 150.001 301.463 149.192 300.998 148.821C297.534 146.052 295.789 141.444 295.124 137.001H295.12Z" fill="#F4F2F3"/>
<path d="M256.069 89.4844C256.526 90.6504 256.76 91.84 256.8 93.1047C256.814 93.5561 257.469 93.542 257.456 93.0906C257.407 91.7647 257.177 90.5047 256.698 89.2822C256.539 88.8684 255.91 89.0659 256.074 89.4844H256.069Z" fill="#F4F2F3"/>
<path d="M256.742 94.285C256.321 94.2944 256.335 94.995 256.76 94.9809C257.185 94.9715 257.172 94.2709 256.742 94.285Z" fill="#F4F2F3"/>
<path d="M283.923 88.3748C284.171 89.1459 284.344 89.9264 284.193 90.7445C284.114 91.1865 284.747 91.3557 284.827 90.9138C284.999 89.9687 284.844 89.066 284.548 88.1679C284.41 87.7448 283.781 87.947 283.923 88.3748Z" fill="#F4F2F3"/>
<path d="M284.367 94.3507C284.464 94.4588 284.469 94.6751 284.376 94.7879C284.096 95.1265 284.575 95.6155 284.849 95.2722C285.177 94.8585 285.164 94.2331 284.818 93.8429C284.522 93.5185 284.074 94.0216 284.367 94.3507Z" fill="#F4F2F3"/>
<path d="M263.356 98.4365C259.147 95.9681 253.858 95.6201 249.956 98.9255C249.513 99.3016 250.031 100.049 250.479 99.6731C254.155 96.5605 259.063 96.9742 263.01 99.2922C263.502 99.579 263.847 98.7233 263.36 98.4365H263.356Z" fill="#D0432D"/>
<path d="M278.137 98.4318C277.685 98.7422 278.115 99.5415 278.571 99.2264C282.372 96.6405 287.922 95.9117 291.731 98.8691C292.17 99.2123 292.56 98.3942 292.13 98.051C288.081 94.9055 282.168 95.686 278.141 98.4271L278.137 98.4318Z" fill="#D0432D"/>
<path d="M274.228 119.731C274.228 119.731 274.241 119.731 274.254 119.726C274.237 119.731 274.219 119.735 274.201 119.735H274.228V119.731Z" fill="#EBEAEF"/>
<path d="M274.254 119.721C274.28 119.712 274.307 119.703 274.329 119.703C274.307 119.703 274.276 119.712 274.254 119.721Z" fill="#EBEAEF"/>
<path d="M273.273 96.6213L273.282 96.6259V96.6123L273.273 96.6213Z" fill="#B5C5A7"/>
<path d="M273.273 96.6213L273.282 96.6259V96.6123L273.273 96.6213Z" fill="#B5C5A7"/>
<path d="M272.012 105.146C271.897 105.024 271.724 105.024 271.622 105.146C271.52 105.264 271.529 105.471 271.64 105.588C271.68 105.635 271.724 105.682 271.768 105.729C271.879 105.852 272.056 105.852 272.158 105.729C272.26 105.607 272.251 105.405 272.14 105.283C272.096 105.236 272.052 105.189 272.012 105.142V105.146Z" fill="#E26352"/>
<path d="M268.901 90.3212C269.052 93.8428 268.343 97.3221 268.299 100.844C268.294 101.464 269.198 101.464 269.202 100.844C269.247 97.3221 269.955 93.8475 269.805 90.3212C269.778 89.7006 268.87 89.7006 268.901 90.3212Z" fill="#D0432D"/>
<path d="M271.871 90.2179C271.871 93.4809 272.367 96.6829 272.775 99.9036C272.85 100.524 273.736 100.336 273.661 99.7249C273.262 96.5888 272.766 93.4715 272.77 90.3025C272.77 89.6819 271.871 89.602 271.871 90.2226V90.2179Z" fill="#D0432D"/>
<path d="M272.685 104.949C271.698 105.437 270.542 105.503 269.802 104.53C269.368 103.966 268.628 104.77 269.053 105.334C270.107 106.707 271.835 106.613 273.221 105.922C273.842 105.611 273.301 104.638 272.685 104.944V104.949Z" fill="#D0432D"/>
<path d="M268.389 104.37C267.454 104.21 266.741 103.712 266.896 102.602C266.985 101.991 266.112 101.728 266.028 102.344C265.935 103.026 265.975 103.721 266.378 104.3C266.799 104.902 267.472 105.184 268.15 105.296C268.717 105.395 268.965 104.464 268.394 104.366L268.389 104.37Z" fill="#D0432D"/>
<path d="M275.086 101.695C274.515 101.559 274.275 102.494 274.847 102.626C275.002 102.659 275.135 102.696 275.272 102.786C275.321 102.814 275.33 102.852 275.33 102.866C275.352 103.134 275.121 103.43 274.984 103.632C274.639 104.135 275.423 104.619 275.764 104.121C276.065 103.679 276.3 103.185 276.207 102.621C276.109 102.076 275.547 101.803 275.09 101.7L275.086 101.695Z" fill="#D0432D"/>
<path d="M271.525 94.252C271.627 93.6408 270.732 93.5279 270.626 94.1392C270.382 95.5403 270.98 96.9367 271.197 98.3002C271.295 98.9162 272.185 98.7704 272.092 98.1592C271.893 96.8944 271.303 95.5544 271.525 94.2567V94.252Z" fill="#FAE3DD"/>
<path d="M271.989 100.853C271.48 100.552 271.024 101.389 271.533 101.686C271.604 101.728 271.577 101.7 271.604 101.728C271.604 101.747 271.595 101.789 271.586 101.808C271.546 101.883 271.502 101.939 271.444 102.001C271.041 102.452 271.679 103.134 272.082 102.682C272.326 102.41 272.499 102.104 272.516 101.723C272.534 101.347 272.286 101.023 271.989 100.849V100.853Z" fill="#FAE3DD"/>
<path d="M242.29 84.7498C242.135 84.5899 241.971 84.4535 241.785 84.3548C239.964 83.3157 238.551 85.7559 238.277 87.6555C237.869 90.4812 238.015 94.5436 239.171 97.1249C239.619 98.1216 241.913 101.878 242.99 101.62C244.965 101.131 244.026 94.6846 243.973 92.9685C243.907 90.8762 243.964 86.4377 242.29 84.7498Z" fill="#EA7453"/>
<path d="M239.462 94.5201L241.185 94.8869C241.057 93.0955 240.977 91.2571 240.769 89.4986C238.262 89.0002 238.86 92.4466 239.462 94.5248V94.5201Z" fill="#D0432D"/>
<path d="M298.646 84.27C298.473 84.3641 298.305 84.5004 298.159 84.6462C296.551 86.2871 296.475 90.7538 296.356 92.8602C296.241 94.802 294.898 99.7953 296.949 100.877C298.65 101.765 300.103 98.6387 300.741 97.2234C301.897 94.6657 302.145 90.5845 301.844 87.7211C301.64 85.8028 300.387 83.2921 298.646 84.27Z" fill="#EA7453"/>
<path d="M299.262 88.8684C298.992 90.5987 298.828 92.4183 298.633 94.1908L300.281 94.0263C300.932 92.028 301.649 88.6521 299.262 88.8731V88.8684Z" fill="#D0432D"/>
<path d="M243.821 85.7793C243.857 85.2621 243.104 85.2668 243.068 85.7793C242.855 88.7038 243.068 91.586 243.582 94.4635C243.671 94.9713 244.397 94.755 244.308 94.2472C243.803 91.4403 243.609 88.6286 243.821 85.7746V85.7793Z" fill="#D0432D"/>
<path d="M296.862 83.9032C296.897 88.0549 297.54 92.2019 296.875 96.3394C296.804 96.7767 297.531 96.9648 297.597 96.5228C298.279 92.3194 297.65 88.1207 297.61 83.9032C297.606 83.4519 296.853 83.4519 296.857 83.9032H296.862Z" fill="#D0432D"/>
<path d="M243.414 98.8313C243.432 100.312 243.662 101.775 243.928 103.223C244.021 103.731 244.747 103.514 244.654 103.006C244.402 101.629 244.18 100.237 244.163 98.8266C244.163 98.3047 243.405 98.3047 243.414 98.8266V98.8313Z" fill="#D0432D"/>
<path d="M264.303 124.913C259.563 122.628 255.049 119.741 251.089 116.134C250.722 115.796 250.19 116.365 250.558 116.703C254.571 120.361 259.124 123.295 263.922 125.608C264.36 125.82 264.741 125.124 264.303 124.913Z" fill="#D0432D"/>
<path d="M290.302 115.222C286.776 119.317 282.621 122.759 278.174 125.646C277.757 125.914 278.218 126.548 278.63 126.285C283.135 123.37 287.325 119.867 290.895 115.72C291.228 115.339 290.634 114.85 290.306 115.222H290.302Z" fill="#D0432D"/>
<path d="M274.205 128.566C272.066 132.05 267.924 130.564 265.807 128.128C265.426 127.686 264.93 128.542 265.311 128.984C267.782 131.819 272.433 133.108 274.852 129.168C275.18 128.627 274.533 128.03 274.205 128.566Z" fill="#D0432D"/>
<path d="M295.542 74.4855C295.307 74.1141 294.749 74.4808 294.988 74.857C295.909 76.3004 296.53 77.9225 297.278 79.46C297.473 79.8597 298.027 79.4929 297.832 79.0933C297.074 77.5511 296.459 75.9243 295.537 74.4855H295.542Z" fill="#F4F2F3"/>
<path d="M309.07 124.926C308.955 124.419 308.219 124.635 308.334 125.143C308.618 126.379 308.875 127.621 309.389 128.773C309.601 129.252 310.261 128.834 310.049 128.363C309.561 127.273 309.34 126.092 309.07 124.926Z" fill="white"/>
<path d="M339.527 113.957C339.572 113.957 339.62 113.943 339.665 113.943C339.616 113.83 339.576 113.717 339.527 113.604V113.957Z" fill="#D36C53"/>
<path d="M252.986 42.2927C248.486 45.0433 245.274 49.3642 243.586 54.5832C243.458 54.9875 244.052 55.1615 244.18 54.7619C245.815 49.698 248.933 45.5276 253.296 42.8663C253.642 42.6548 253.327 42.0858 252.982 42.2927H252.986Z" fill="#F4F2F3"/>
<path d="M273.322 33.4156C272.29 41.0795 269.902 48.5459 270.363 56.3744C270.385 56.8023 270.996 56.7129 270.974 56.2851C270.522 48.5224 272.906 41.103 273.938 33.5002C273.991 33.0818 273.38 32.9877 273.322 33.4109V33.4156Z" fill="#F4F2F3"/>
<path d="M288.189 37.8635C284.029 36.8526 280.273 38.4888 278.067 42.4148C277.863 42.7768 278.395 43.1107 278.603 42.7486C280.663 39.0765 284.131 37.5532 288.025 38.5029C288.415 38.6017 288.574 37.9622 288.189 37.8682V37.8635Z" fill="#F4F2F3"/>
<path d="M262.83 49.4109C260.615 49.8576 258.343 49.9564 256.146 50.5112C255.76 50.6052 255.924 51.2399 256.309 51.1459C258.507 50.5958 260.779 50.4971 262.994 50.0457C263.383 49.9611 263.22 49.3263 262.83 49.4109Z" fill="#F4F2F3"/>
<path d="M292.953 59.1297C291.142 57.6956 288.914 56.2898 286.562 56.5437C286.172 56.586 286.167 57.2443 286.562 57.2019C291.08 56.7083 295.718 61.9602 297.609 65.8344C297.791 66.2106 298.327 65.8767 298.141 65.4959C296.922 63.004 295.071 60.7941 292.949 59.125L292.953 59.1297Z" fill="#F4F2F3"/>
<path d="M249.387 34.0457C249.055 34.2761 249.361 34.8451 249.702 34.6194C254.446 31.3798 259.916 32.1932 264.302 35.7196C264.621 35.9735 264.926 35.3999 264.612 35.146C260.058 31.4833 254.3 30.6934 249.387 34.0457Z" fill="#F4F2F3"/>
<path d="M242.048 107.21C241.738 106.956 241.3 107.412 241.61 107.676C245.623 111.009 247.625 116.106 248.728 121.273C248.817 121.692 249.41 121.508 249.322 121.095C248.197 115.833 246.133 110.605 242.044 107.21H242.048Z" fill="#F4F2F3"/>
<path d="M259.746 88.4313C256.827 88.7557 253.881 88.8686 251.011 88.1163C250.214 87.9047 249.877 89.2165 250.674 89.4281C253.655 90.2133 256.707 90.1333 259.746 89.7901C260.552 89.7008 260.561 88.342 259.746 88.4313Z" fill="#222628"/>
<path d="M289.637 87.0679C286.634 87.4017 283.639 87.5945 280.627 87.2936C279.812 87.2136 279.817 88.5725 280.627 88.6524C283.644 88.9533 286.634 88.7605 289.637 88.4267C290.443 88.3374 290.452 86.9738 289.637 87.0679Z" fill="#222628"/>
<path d="M272.712 110.981C271.378 110.727 269.85 110.577 268.508 110.788C267.068 111.014 265.841 111.94 264.424 112.241C264.579 114.122 267.068 116.28 268.486 117.06C270.368 118.095 272.393 118.109 274.151 116.872C275.228 116.115 277.154 115.053 277.739 113.774C279.161 110.652 274.289 111.282 272.712 110.981Z" fill="white"/>
<path d="M266.284 115.175C265.266 114.117 265.084 112.363 263.613 111.733C263.724 111.78 264.127 113.971 264.295 114.319C265.079 115.941 265.965 117.808 267.591 118.711C269.496 119.764 271.999 120.276 274.116 119.538C275.959 118.894 277.239 116.571 277.806 114.808C278.142 113.76 278.054 112.617 278.297 111.55C277.318 112.589 276.875 113.736 276.3 114.728C274.404 117.991 268.738 117.723 266.289 115.184L266.284 115.175Z" fill="#B03718"/>
<path d="M273.036 117.69C272.084 117.846 271.14 117.803 270.197 117.596C269.958 117.545 269.922 117.949 270.157 118.001C271.136 118.212 272.11 118.255 273.094 118.09C273.337 118.048 273.271 117.653 273.032 117.695L273.036 117.69Z" fill="#F4F2F3"/>
<path d="M271.603 110.746C270.367 110.873 269.446 109.834 268.29 109.73C267.767 109.683 263.586 111.343 263.71 111.573C264.596 113.214 266.74 113.064 268.268 113.379C271.36 114.009 275.599 113.779 278.225 111.733C277.207 111.028 276.17 110.318 274.979 109.956C273.446 109.486 272.994 110.6 271.599 110.746H271.603Z" fill="#C13318"/>
<path d="M267.8 109.754C267.321 110.121 266.794 110.365 266.249 110.586C266.032 110.675 266.134 111.061 266.355 110.976C266.931 110.741 267.485 110.492 267.994 110.097C268.185 109.951 267.994 109.608 267.804 109.759L267.8 109.754Z" fill="#F4F2F3"/>
<path d="M274.208 109.951C273.973 109.951 273.986 110.356 274.212 110.356C274.704 110.356 275.169 110.497 275.532 110.868C275.709 111.042 275.957 110.75 275.78 110.577C275.342 110.135 274.784 109.951 274.203 109.956L274.208 109.951Z" fill="#F4F2F3"/>
<path d="M273.886 226.692C270.449 229.452 266.604 231.822 262.17 231.591C258.236 231.384 255.158 228.211 253.027 224.962C248.381 217.857 246.64 208.397 245.749 199.939C245.656 199.041 244.328 199.031 244.425 199.939C245.391 209.084 247.278 219.559 252.762 226.965C258.892 235.235 267.26 233.768 274.551 227.919C275.224 227.378 274.568 226.147 273.886 226.697V226.692Z" fill="#EDF1F5"/>
<path d="M269.9 192.186C264.022 186.492 254.418 192.2 248 193.587C247.163 193.77 247.517 195.134 248.35 194.95C254.516 193.615 263.224 188.335 268.961 193.182C272.442 196.126 273.913 201.448 275.246 205.769C276.717 210.551 278.015 215.939 277.107 220.975C276.947 221.868 278.223 222.244 278.382 221.351C279.348 216.005 278.015 210.485 276.522 205.393C275.135 200.658 273.417 195.59 269.895 192.181L269.9 192.186Z" fill="#EDF1F5"/>
<path d="M312.608 241.916C292.994 234.643 275.799 255.575 284.591 275.318C295.076 298.841 333.339 290.091 329.339 262.247C328.134 253.868 319.962 244.643 312.608 241.916Z" fill="#9C2C16"/>
<path d="M293.815 284.655C285.97 282.873 283.29 270.132 284.566 262.877C284.721 261.983 283.45 261.603 283.29 262.501C281.886 270.484 284.819 284.054 293.461 286.019C294.294 286.207 294.648 284.844 293.815 284.651V284.655Z" fill="#CA4125"/>
<path d="M312.068 240.374C303.422 235.663 290.665 241.108 286.886 250.535C286.554 251.362 287.692 252.086 288.029 251.249C291.506 242.575 303.351 237.21 311.4 241.597C312.162 242.01 312.83 240.788 312.068 240.374Z" fill="#CA4125"/>
<path d="M265.495 330.376C262.195 316.289 258.497 302.32 255.073 288.267C247.937 259.012 241.629 229.532 234.692 200.221C234.484 199.337 233.204 199.713 233.416 200.597C240.242 229.452 246.488 258.467 253.469 287.284C256.88 301.37 260.623 315.354 263.923 329.473C267.241 343.658 270.656 357.825 275.79 371.404C276.104 372.24 277.384 371.874 277.065 371.027C272.087 357.858 268.725 344.133 265.5 330.376H265.495Z" fill="#CA4125"/>
<path d="M372.891 334.128C374.69 339.201 375.877 344.491 375.629 349.945C375.301 357.181 370.924 361.431 365.401 364.816C355.115 371.126 342.774 373.444 331.235 375.579C322.265 377.238 313.45 379.335 304.52 381.197C296.109 382.956 284.153 384.423 280.082 374.159C279.75 373.317 278.612 374.041 278.939 374.873C282.705 384.371 292.813 384.456 301.048 383.252C305.964 382.533 310.788 381.183 315.617 379.994C320.883 378.696 326.261 377.916 331.59 376.942C344.165 374.648 357.423 371.94 368.377 364.558C372.834 361.553 376.08 357.496 376.771 351.75C377.511 345.61 376.2 339.478 374.167 333.752C373.87 332.905 372.59 333.272 372.891 334.128Z" fill="#CA4125"/>
<path d="M355.142 230.416C352.772 221.416 350.601 212.483 349.073 203.277C347.771 195.425 346.358 187.535 343.7 180.055C341.689 174.394 338.615 168.455 333.251 165.818C332.48 165.437 331.807 166.659 332.582 167.04C338.637 170.016 341.485 177.238 343.479 183.6C345.671 190.606 346.845 197.95 348.05 205.205C349.485 213.879 351.625 222.31 353.862 230.787C355.306 236.274 356.723 241.775 357.95 247.323C359.058 252.349 360.502 257.973 360.502 263.154C360.502 264.066 361.826 264.066 361.826 263.154C361.826 258.227 360.488 253.012 359.501 248.235C358.26 242.241 356.697 236.321 355.137 230.411L355.142 230.416Z" fill="#CA4125"/>
<path d="M322.771 163.838C311.103 164.337 299.834 167.995 288.707 171.493C280.995 173.919 273.341 175.899 265.474 177.596C258.289 179.147 251.042 180.882 244.336 184.127C239.379 186.525 234.365 190.404 233.834 196.629C233.754 197.536 235.083 197.531 235.158 196.629C235.747 189.698 242.706 186.191 248.044 183.995C254.626 181.291 261.642 179.843 268.535 178.381C286.665 174.535 304.153 166.044 322.771 165.249C323.621 165.211 323.626 163.796 322.771 163.834V163.838Z" fill="#CA4125"/>
<path d="M327.962 315.574C321.747 313.398 315.072 313.148 311.648 316.581C311.023 317.206 313.978 319.642 318.35 322.354C323.647 325.646 332.932 332.858 338.562 327.86C347.248 320.145 332.87 317.291 327.962 315.579V315.574Z" fill="#EA7453"/>
<path d="M360.13 317.192C356.015 314.855 343.647 317.803 339.887 320.051C330.904 325.448 333.477 329.882 340.21 331.245C362.398 335.712 366.5 330.503 367.208 329.374C366.34 328.373 361.446 317.902 360.13 317.197V317.192Z" fill="#EA7453"/>
<path d="M352.267 316.872C347.501 328.471 360.506 335.204 371.416 330.39C389.214 322.505 358.77 300.98 352.267 316.872Z" fill="#EA7453"/>
<path d="M360.196 285.337C354.419 281.327 345.799 285.337 339.385 283.264C330.322 280.339 322.048 275.238 313.539 270.917C308.281 268.246 302.704 267.043 298.367 271.175C296.604 272.863 296.21 276.018 296.21 276.018C296.21 276.018 310.327 286.108 311.04 286.879C300.17 284.604 296.919 286.893 295.794 288.864C293.814 292.329 319.629 309.401 322.77 311.15C331.656 316.101 368.563 325.773 369.511 308.752C369.834 302.959 364.895 288.6 360.196 285.342V285.337Z" fill="#EA7453"/>
<path d="M339.666 263.173C337.641 266.883 335.861 270.771 333.867 274.509C341.491 279.714 349.876 283.955 358.571 287.368C359.116 281.585 359.785 275.844 360.755 270.23C348.724 266.21 340.051 263.479 340.051 263.479C340.051 263.479 339.914 263.361 339.666 263.168V263.173Z" fill="#EA7453"/>
<path d="M322.235 242.462C322.005 242.692 321.775 242.913 321.54 243.134C319.511 245.048 330.218 268.989 331.582 271.735C334.195 277.006 340.419 277.029 343.187 272.732C344.162 271.222 344.428 269.581 344.264 267.903C343.356 258.636 331.675 244.822 322.235 242.462Z" fill="#EA7453"/>
<path d="M378.529 232.578C368.314 226.748 356.563 229.593 362.113 241.375C363.655 244.657 369.098 250.488 375.579 255.768C386.826 264.927 401.173 272.417 403.459 261.744C405.913 250.332 389.74 238.978 378.529 232.578Z" fill="#EA7453"/>
<path d="M402.285 251.696C394.826 245.527 391.645 245.428 385.191 251.875C382.321 254.738 379.309 256.069 376.213 258.476C370.299 263.069 364.062 265.576 357.892 269.943C346.968 277.683 355.575 296.537 357.258 306.735C358.818 316.176 358.078 333.888 370.835 331.462C383.854 328.988 406.484 326.802 414.839 314.272C423.977 300.562 422.081 279.023 414.471 265.416C411.512 260.121 406.808 255.438 402.281 251.696H402.285Z" fill="#EA7453"/>
<path d="M375.016 241.535C372.084 250.807 374.166 263.638 367.34 271.552L369.47 278.36C378.387 278.835 384.447 266.84 387.282 259.473C391.574 248.325 384.057 245.541 375.012 241.535H375.016Z" fill="#EA7453"/>
<path d="M195.433 367.2C185.568 366.415 173.17 364.727 166.876 355.521C166.379 354.792 165.228 355.497 165.733 356.235C172.364 365.93 185.01 367.788 195.433 368.62C196.284 368.69 196.279 367.27 195.433 367.205V367.2Z" fill="#CD4F25"/>
<path d="M189.647 378.55C183.45 377.215 176.646 377.624 171.26 381.451C170.551 381.954 171.216 383.181 171.929 382.674C177.018 379.053 183.437 378.649 189.293 379.914C190.126 380.092 190.48 378.733 189.643 378.545L189.647 378.55Z" fill="#CD4F25"/>
<path d="M225.51 329.327C218.556 336.013 222.361 349.86 225.351 357.665C229.874 369.476 237.386 365.639 246.874 361.525C242.64 352.201 232.217 344.161 231.805 332.788L225.51 329.327Z" fill="#EA7453"/>
<path d="M216.745 367.003C207.398 370.167 198.455 375.41 193.569 384.851C193.122 385.711 194.451 386.271 194.889 385.42C199.58 376.355 208.382 371.418 217.316 368.395C218.189 368.098 217.609 366.707 216.74 367.003H216.745Z" fill="#CD4F25"/>
<path d="M228.515 327.381C228.386 326.99 227.908 326.666 227.54 326.957C218.34 334.264 220.112 352.164 225.981 361.191C226.464 361.934 227.616 361.229 227.124 360.476C221.875 352.404 219.749 335.886 227.567 328.739C230.238 336.714 232.776 344.885 237.999 351.43C238.552 352.126 239.487 351.12 238.933 350.429C233.653 343.823 231.226 335.421 228.51 327.385L228.515 327.381Z" fill="#CD4F25"/>
<path d="M222.556 366.307C222.259 365.456 220.979 365.822 221.28 366.683C222.206 369.358 224.239 371.389 226.086 373.364C226.688 374.013 227.628 373.011 227.025 372.362C225.36 370.585 223.397 368.719 222.56 366.307H222.556Z" fill="#CD4F25"/>
<path d="M227.682 363.871C227.079 363.222 226.14 364.224 226.747 364.868C228.293 366.518 229.834 368.173 231.38 369.824C231.983 370.472 232.922 369.466 232.315 368.822C230.769 367.172 229.223 365.521 227.682 363.871Z" fill="#CD4F25"/>
<path d="M332.153 297.233C325.291 292.874 318.031 288.92 310.147 287.251C309.314 287.077 308.959 288.44 309.797 288.614C317.579 290.265 324.716 294.153 331.484 298.45C332.219 298.916 332.888 297.693 332.153 297.228V297.233Z" fill="#CD4F25"/>
<path d="M352.343 299.254C347.018 298.7 341.769 299.861 336.454 299.96C335.599 299.979 335.599 301.394 336.454 301.375C341.769 301.271 347.018 300.115 352.343 300.67C353.189 300.759 353.184 299.344 352.343 299.254Z" fill="#CD4F25"/>
<path d="M358.3 314.827C353.463 314.93 348.847 316.27 344.223 317.686C343.403 317.935 343.753 319.298 344.573 319.049C349.082 317.676 353.578 316.345 358.3 316.242C359.155 316.223 359.155 314.808 358.3 314.827Z" fill="#CD4F25"/>
<path d="M141.08 408.58C129.364 410.992 114.618 410.292 106.029 400.197C100.062 393.187 99.9782 382.754 100.541 373.886C101.156 364.177 102.835 354.609 102.822 344.852C102.795 329.21 102.361 313.571 102.104 297.933C101.639 269.934 101.661 241.912 101.351 213.908C101.041 185.664 100.895 157.402 101.923 129.172C101.945 128.556 101.041 128.556 101.019 129.172C99.8852 160.223 100.178 191.306 100.541 222.371C100.908 253.459 100.922 284.552 101.533 315.64C101.79 328.645 102.618 341.89 101.511 354.863C100.714 364.196 99.0879 373.496 99.4909 382.899C99.8276 390.822 102.18 398.904 108.394 403.827C117.79 411.275 130.232 411.792 141.32 409.507C141.891 409.389 141.647 408.468 141.08 408.58Z" fill="#EDF0F4"/>
<path d="M372.363 409.521C343.164 409.512 313.973 408.571 284.777 408.562C255.063 408.552 225.447 411.801 195.733 411.886C189.594 411.905 183.455 411.759 177.32 411.435C176.735 411.402 176.739 412.361 177.32 412.394C206.892 413.955 236.437 410.988 265.973 409.888C295.311 408.797 324.714 410.038 354.056 410.367C360.16 410.438 366.259 410.475 372.363 410.475C372.948 410.475 372.948 409.516 372.363 409.516V409.521Z" fill="#EDF0F4"/>
<path d="M447.765 375.499C447.017 381.738 446.188 388.311 443.522 394.014C441.458 398.434 437.967 401.368 433.653 403.051C427.309 405.524 420.249 405.698 413.587 406.215C403.775 406.977 393.941 407.584 384.103 407.602C383.523 407.602 383.523 408.561 384.103 408.561C394.504 408.543 404.891 407.856 415.261 407.043C421.879 406.526 428.807 406.182 435.035 403.502C445.657 398.932 447.384 386.2 448.664 375.494C448.735 374.878 447.832 374.887 447.761 375.494L447.765 375.499Z" fill="#EDF0F4"/>
<path d="M454.895 166.509C455.312 149.413 459.258 127.357 442.829 117.004C433.461 111.099 421.297 109.763 410.644 109.082C398.148 108.282 385.568 109.166 373.138 110.638C371.074 110.882 369.006 111.155 366.946 111.437C366.374 111.517 366.37 112.476 366.946 112.396C379.172 110.713 391.486 109.618 403.822 109.782C415.809 109.942 428.783 111.07 439.826 116.421C448.149 120.455 452.769 127.954 454.116 137.382C455.617 147.881 454.116 158.784 453.934 169.33C453.668 184.54 454.74 199.732 455.4 214.914C456.065 230.167 455.914 245.443 455.848 260.709C455.715 291.652 455.086 322.632 452.277 353.447C452.22 354.063 453.124 354.059 453.181 353.447C456.02 322.317 456.623 291.031 456.756 259.774C456.822 244.192 456.915 228.62 456.224 213.052C455.533 197.541 454.514 182.039 454.895 166.504V166.509Z" fill="#EDF0F4"/>
<path d="M206.096 108.578C198.296 109.773 190.282 109.406 182.438 109.129C172.901 108.79 163.373 108.249 153.831 108.202C144.95 108.155 135.976 108.489 127.245 110.332C120.596 111.738 113.655 114.268 108.88 119.614C108.707 119.806 108.543 120.004 108.379 120.206C107.998 120.667 108.632 121.349 109.017 120.883C113.797 115.086 121.061 112.613 127.967 111.155C137.012 109.241 146.381 109.086 155.572 109.171C164.896 109.26 174.207 109.801 183.523 110.125C191.102 110.389 198.809 110.657 206.34 109.505C206.916 109.415 206.667 108.494 206.1 108.578H206.096Z" fill="#EDF0F4"/>
<path d="M197.138 156.325C169.467 155.845 141.857 158.135 114.185 157.655C113.508 157.641 113.494 158.601 114.168 158.615C141.839 159.094 169.449 156.804 197.121 157.284C197.798 157.293 197.812 156.339 197.134 156.325H197.138Z" fill="#EDF0F4"/>
<path d="M448.208 157.59C415.681 156.96 383.243 160.975 350.713 159.39C350.079 159.358 350.061 160.317 350.695 160.35C383.221 161.934 415.659 157.919 448.186 158.549C448.824 158.563 448.837 157.604 448.203 157.59H448.208Z" fill="#EDF0F4"/>
<path d="M30.78 318.076C22.2176 322.726 14.2886 328.547 5.1991 332.139C3.00202 333.009 4.86688 336.375 7.04624 335.515C16.1358 331.923 24.0692 326.102 32.6271 321.452C34.7135 320.319 32.8707 316.943 30.7844 318.076H30.78Z" fill="#005252" fill-opacity="0.28"/>
<path d="M70.6225 80.1184C62.8176 74.8054 55.5708 68.693 48.9352 61.819C47.5178 60.3474 45.7061 62.8017 47.1102 64.2545C53.7458 71.1333 60.9881 77.2456 68.7931 82.5539C70.4453 83.6776 72.288 81.2515 70.6181 80.1184H70.6225Z" fill="#005252" fill-opacity="0.28"/>
<path d="M67.5074 418.313C62.9759 423.762 58.2451 428.784 52.562 432.014C49.3815 433.819 51.2464 439.433 54.418 437.633C60.4954 434.181 65.6868 428.784 70.5284 422.954C73.0754 419.888 70.0721 415.224 67.5074 418.313Z" fill="#005252" fill-opacity="0.28"/>
<path d="M178.205 3.05154C177.682 -1.69256 170.612 -0.578237 171.135 4.14706C172.304 14.7966 173.74 25.5026 178.63 35.0566C180.761 39.2224 187.334 36.2556 185.19 32.0616C180.57 23.0435 179.312 13.104 178.205 3.05154Z" fill="#005252" fill-opacity="0.28"/>
<path d="M29.5192 200.244C21.6213 194.814 11.9426 193.728 2.78221 196.304C0.585132 196.92 -0.464681 199.991 0.195328 202.102C0.970506 204.58 3.22517 205.341 5.41338 204.725C12.5229 202.727 19.8583 204.316 25.8604 208.444C27.7341 209.733 30.476 208.219 31.3796 206.202C32.4737 203.752 31.3885 201.533 29.5192 200.249V200.244Z" fill="#005252" fill-opacity="0.28"/>
<path d="M495.454 444.422C487.755 438.159 481.78 430.129 474.878 423.019C473.195 421.285 470.502 423.941 472.185 425.671C479.082 432.78 485.058 440.816 492.761 447.079C494.603 448.578 497.319 445.941 495.454 444.422Z" fill="#005252" fill-opacity="0.28"/>
<path d="M506.296 48.2122C498.77 57.1455 490.451 65.2091 481.379 72.3464C479.439 73.8745 481.867 76.658 483.789 75.1487C492.861 68.0114 501.184 59.9525 508.705 51.0144C510.296 49.1243 507.908 46.3032 506.296 48.2122Z" fill="#005252" fill-opacity="0.28"/>
<path d="M540.978 318.409C532.119 318.061 523.379 314.888 514.64 311.051C509.692 308.879 508.722 316.58 513.634 318.739C522.985 322.843 532.5 326.186 541.975 326.558C546.922 326.75 545.939 318.602 540.978 318.414V318.409Z" fill="#005252" fill-opacity="0.28"/>
<path d="M545.782 175.607C535.661 177.577 525.597 179.34 515.369 177.135C510.611 176.11 509.805 184.254 514.532 185.269C525.371 187.606 536.232 185.786 546.961 183.704C551.718 182.777 550.566 174.681 545.787 175.612L545.782 175.607Z" fill="#005252" fill-opacity="0.28"/>
<path d="M390.114 1.47157C388.369 -0.0941282 385.02 -0.216375 383.54 1.89002C377.361 10.6824 374.464 21.5153 376.426 32.2024C376.891 34.732 378.566 36.8008 381.343 36.6221C383.633 36.4764 386.194 34.1443 385.724 31.61C384.231 23.49 385.697 14.9657 390.49 8.1434C391.965 6.0417 392.156 3.30996 390.109 1.47157H390.114Z" fill="#005252" fill-opacity="0.28"/>
<path d="M347.871 453.656C350.923 463.337 355.162 472.529 357.151 482.605C357.634 485.041 361.049 483.588 360.571 481.171C358.582 471.095 354.343 461.899 351.291 452.222C350.546 449.867 347.127 451.291 347.871 453.656Z" fill="#005252" fill-opacity="0.28"/>
<path d="M179.902 454.667C174.564 462.891 173.262 473.127 175.428 482.92C175.946 485.267 178.803 486.47 180.814 485.831C183.171 485.079 183.95 482.709 183.432 480.367C181.753 472.765 183.458 465.03 187.516 458.777C188.783 456.826 187.436 453.873 185.558 452.857C183.281 451.625 181.164 452.716 179.897 454.663L179.902 454.667Z" fill="#005252" fill-opacity="0.28"/>
</g>
<defs>
<clipPath id="clip0_99_1130">
<rect width="550" height="486" fill="white"/>
</clipPath>
</defs>
</svg>
