<svg width="34" height="34" viewBox="0 0 34 34" fill="none" xmlns="http://www.w3.org/2000/svg">
<path d="M7.25 9.25H5.5C4.57174 9.25 3.6815 9.61875 3.02513 10.2751C2.36875 10.9315 2 11.8217 2 12.75V28.5C2 29.4283 2.36875 30.3185 3.02513 30.9749C3.6815 31.6313 4.57174 32 5.5 32H21.25C22.1783 32 23.0685 31.6313 23.7249 30.9749C24.3813 30.3185 24.75 29.4283 24.75 28.5V26.75" stroke="#0082AB" stroke-width="3.5" stroke-linecap="round" stroke-linejoin="round"/>
<path d="M23 5.75019L28.25 11.0002M30.6737 8.52394C31.363 7.83471 31.7502 6.89991 31.7502 5.92519C31.7502 4.95047 31.363 4.01567 30.6737 3.32644C29.9845 2.63721 29.0497 2.25 28.075 2.25C27.1003 2.25 26.1655 2.63721 25.4763 3.32644L10.75 18.0002V23.2502H16L30.6737 8.52394Z" stroke="#0082AB" stroke-width="3.5" stroke-linecap="round" stroke-linejoin="round"/>
</svg>
