<svg width="30" height="30" viewBox="0 0 30 30" fill="none" xmlns="http://www.w3.org/2000/svg">
<path d="M1.875 8.90674C1.875 7.09549 3.345 5.62549 5.15625 5.62549H24.8438C26.655 5.62549 28.125 7.09549 28.125 8.90674V21.0942C28.125 21.9645 27.7793 22.7991 27.1639 23.4144C26.5486 24.0298 25.714 24.3755 24.8438 24.3755H5.15625C4.28601 24.3755 3.45141 24.0298 2.83606 23.4144C2.2207 22.7991 1.875 21.9645 1.875 21.0942V8.90674ZM5.15625 7.50049C4.78329 7.50049 4.4256 7.64865 4.16188 7.91237C3.89816 8.17609 3.75 8.53378 3.75 8.90674V21.0942C3.75 21.8705 4.38 22.5005 5.15625 22.5005H24.8438C25.2167 22.5005 25.5744 22.3523 25.8381 22.0886C26.1018 21.8249 26.25 21.4672 26.25 21.0942V8.90674C26.25 8.53378 26.1018 8.17609 25.8381 7.91237C25.5744 7.64865 25.2167 7.50049 24.8438 7.50049H5.15625ZM17.8125 11.2505C17.5639 11.2505 17.3254 11.3493 17.1496 11.5251C16.9738 11.7009 16.875 11.9393 16.875 12.188C16.875 12.4366 16.9738 12.6751 17.1496 12.8509C17.3254 13.0267 17.5639 13.1255 17.8125 13.1255H23.4375C23.6861 13.1255 23.9246 13.0267 24.1004 12.8509C24.2762 12.6751 24.375 12.4366 24.375 12.188C24.375 11.9393 24.2762 11.7009 24.1004 11.5251C23.9246 11.3493 23.6861 11.2505 23.4375 11.2505H17.8125ZM17.8125 16.8755C17.5639 16.8755 17.3254 16.9743 17.1496 17.1501C16.9738 17.3259 16.875 17.5643 16.875 17.813C16.875 18.0616 16.9738 18.3001 17.1496 18.4759C17.3254 18.6517 17.5639 18.7505 17.8125 18.7505H23.4375C23.6861 18.7505 23.9246 18.6517 24.1004 18.4759C24.2762 18.3001 24.375 18.0616 24.375 17.813C24.375 17.5643 24.2762 17.3259 24.1004 17.1501C23.9246 16.9743 23.6861 16.8755 23.4375 16.8755H17.8125ZM9.86438 14.4642C10.1985 14.4642 10.5294 14.3984 10.8381 14.2706C11.1468 14.1427 11.4273 13.9553 11.6635 13.719C11.8998 13.4827 12.0872 13.2023 12.2151 12.8936C12.3429 12.5849 12.4088 12.254 12.4088 11.9199C12.4088 11.5857 12.3429 11.2549 12.2151 10.9462C12.0872 10.6375 11.8998 10.357 11.6635 10.1207C11.4273 9.88445 11.1468 9.69703 10.8381 9.56917C10.5294 9.4413 10.1985 9.37549 9.86438 9.37549C9.18957 9.37549 8.54239 9.64356 8.06523 10.1207C7.58807 10.5979 7.32 11.2451 7.32 11.9199C7.32 12.5947 7.58807 13.2418 8.06523 13.719C8.54239 14.1962 9.18957 14.4642 9.86438 14.4642ZM7.23375 15.7355C6.80708 15.7355 6.39789 15.905 6.09619 16.2067C5.79449 16.5084 5.625 16.9176 5.625 17.3442C5.62506 18.0425 5.85853 18.7207 6.28829 19.2711C6.71805 19.8215 7.31944 20.2124 7.99687 20.3817L8.09625 20.408C9.25875 20.6986 10.4719 20.6986 11.6325 20.408L11.7337 20.3836C12.4112 20.2143 13.0126 19.8233 13.4423 19.273C13.8721 18.7226 14.1056 18.0444 14.1056 17.3461C14.1059 17.1347 14.0644 16.9253 13.9837 16.7299C13.903 16.5345 13.7845 16.3569 13.6351 16.2073C13.4857 16.0578 13.3083 15.9391 13.113 15.8581C12.9176 15.7772 12.7083 15.7355 12.4969 15.7355H7.23375Z" fill="#0082AB"/>
</svg>
