<svg width="80" height="23" viewBox="0 0 80 23" fill="none" xmlns="http://www.w3.org/2000/svg">
<path d="M6.43083 10.807C6.12849 10.8938 5.3019 11.0675 4.25981 11.0675C2.04697 11.0675 0.0078125 9.89673 0.0078125 6.46812V4.64446C0.0078125 1.21585 2.092 0.0869141 4.25981 0.0869141C5.25687 0.0869141 6.12528 0.215567 6.43083 0.347436C6.64632 0.389249 6.73317 0.47609 6.73317 0.649772V2.03923C6.73317 2.21291 6.64632 2.34156 6.43083 2.34156H6.38902C5.82616 2.29975 5.04459 2.21291 4.26302 2.21291C3.26596 2.21291 2.48439 2.73396 2.48439 4.64446V6.46812C2.48439 8.37862 3.26596 8.89967 4.26302 8.89967C5.04459 8.89967 5.86797 8.81283 6.38902 8.77101H6.43083C6.64632 8.77101 6.73317 8.89967 6.73317 9.07335V10.4628C6.73317 10.6783 6.60451 10.7233 6.43083 10.8102" fill="#F79007"/>
<path d="M16.0636 10.8906H14.1531C13.9794 10.8906 13.8926 10.7619 13.8926 10.5882V7.07279H10.7663V10.5882C10.7663 10.7619 10.6377 10.8906 10.5058 10.8906H8.5953C8.42162 10.8906 8.29297 10.7619 8.29297 10.5882V3.255C8.29297 0.649772 9.85611 0.0869141 11.8084 0.0869141H12.8505C14.8028 0.0869141 16.3209 0.649772 16.3209 3.255V10.5882C16.3628 10.7619 16.2341 10.8906 16.0604 10.8906M13.8894 3.25179C13.8894 2.47022 13.6739 2.20969 12.8473 2.20969H11.8052C11.0236 2.20969 10.7631 2.47022 10.7631 3.25179V5.07545H13.8894V3.25179Z" fill="#F79007"/>
<path d="M27.8262 10.8905H25.9157C25.787 10.8905 25.7002 10.7619 25.7002 10.5882V4.5994C25.7002 4.51256 25.6584 4.47074 25.6133 4.47074C25.5683 4.47074 25.5265 4.51256 25.4847 4.55759L24.1821 6.9441C24.0952 7.11779 23.9215 7.20463 23.7479 7.20463H22.5771C22.4034 7.20463 22.2298 7.11779 22.1429 6.9441L20.8403 4.55759C20.7985 4.47074 20.7534 4.47074 20.7116 4.47074C20.6698 4.47074 20.6248 4.47074 20.6248 4.5994V10.6332C20.6248 10.8069 20.538 10.9356 20.4093 10.9356H18.4988C18.3702 10.9356 18.2383 10.8938 18.2383 10.7201V0.694768C18.2383 0.392433 18.4538 0.21875 18.7593 0.21875H20.1038C20.4061 0.21875 20.6248 0.347403 20.7535 0.607926L22.9663 4.73127C23.0081 4.85992 23.0531 4.90495 23.14 4.90495C23.1818 4.90495 23.2268 4.81811 23.3137 4.73127L25.5265 0.607926C25.6551 0.347403 25.8739 0.21875 26.1762 0.21875H27.5206C27.8229 0.21875 28.0417 0.434245 28.0417 0.739797V10.7201C28.0835 10.8487 27.9548 10.8938 27.8262 10.8938" fill="#F79007"/>
<path d="M33.5536 11.0226C32.5984 11.0226 31.4694 10.9357 30.9066 10.8489C30.3437 10.762 30.125 10.5465 30.125 9.89362V1.17092C30.125 0.521224 30.3405 0.302515 30.9066 0.215674C31.3826 0.128833 32.5566 0.0419922 33.4668 0.0419922C36.2007 0.0419922 38.0243 0.778532 38.0243 3.0364V3.33873C38.0243 4.29398 37.5901 5.07555 36.8085 5.46473C37.5901 5.85391 38.1112 6.59366 38.1112 7.59073V7.80622C38.0693 10.3246 36.027 11.0193 33.5536 11.0193M35.6378 3.25189C35.6378 2.47032 35.1167 2.08115 33.6404 2.08115H32.5565V4.55451H34.1615C35.2904 4.55451 35.6378 4.03346 35.6378 3.42557V3.25189ZM35.6796 7.59073C35.6796 6.896 35.2904 6.28811 34.1615 6.28811H32.5565V8.98018H33.7273C35.2036 8.98018 35.6796 8.50416 35.6796 7.72259V7.59394V7.59073Z" fill="#F79007"/>
<path d="M47.7901 10.8906H45.5773C45.4036 10.8906 45.3618 10.7619 45.275 10.5882L43.3226 6.94414H43.1489C42.8466 6.94414 42.4124 6.90233 42.1069 6.90233V10.5464C42.1069 10.7201 41.9782 10.8488 41.8045 10.8488H39.9391C39.7654 10.8488 39.6367 10.7201 39.6367 10.5464V0.955323C39.6367 0.479306 39.8522 0.347437 40.2864 0.260596C40.9361 0.173755 42.1969 0.0869141 43.194 0.0869141C45.6255 0.0869141 47.5328 0.910294 47.5328 3.4705V3.64418C47.5328 5.16229 46.7094 6.11754 45.6673 6.50993L47.8384 10.5882C47.8802 10.6301 47.8802 10.7169 47.8802 10.7619C48.0088 10.8488 47.967 10.8906 47.7933 10.8906M45.2331 3.42547C45.2331 2.55706 44.5384 2.12285 43.3226 2.12285C43.1071 2.12285 42.3674 2.16467 42.1937 2.16467V4.94358C42.3674 4.94358 43.0621 4.98539 43.2358 4.98539C44.7539 4.98539 45.2331 4.59621 45.2331 3.59593V3.42225V3.42547Z" fill="#F79007"/>
<path d="M51.7402 10.8908H49.7879C49.6142 10.8908 49.5273 10.7622 49.5273 10.5885V0.476342C49.5273 0.302661 49.6142 0.21582 49.7879 0.21582H51.7402C51.9139 0.21582 52.0007 0.344473 52.0007 0.476342V10.6303C52.0007 10.759 51.9139 10.8908 51.7402 10.8908Z" fill="#F79007"/>
<path d="M57.5096 11.0224C56.2938 11.0224 55.0362 10.8937 54.4283 10.8069C54.1678 10.7651 53.9941 10.6332 53.9941 10.2858V0.736541C53.9941 0.389177 54.1228 0.260525 54.4283 0.215496C55.0362 0.128655 56.2938 0 57.5096 0C60.3754 0 62.109 1.51811 62.109 4.55755V6.42302C62.109 9.50426 60.3721 11.0224 57.5096 11.0224ZM59.6806 4.59936C59.6806 2.64704 58.8572 2.126 57.5546 2.126C57.2073 2.126 56.7312 2.126 56.5125 2.16781V8.89316C56.728 8.89316 57.1622 8.93498 57.5546 8.93498C58.8572 8.93498 59.6806 8.41393 59.6806 6.46161V4.59614V4.59936Z" fill="#F79007"/>
<path d="M71.0086 2.34134C70.272 2.29953 69.1849 2.21269 67.9691 2.21269C66.7533 2.21269 66.0586 2.77555 66.0586 4.64424V6.4679C66.0586 8.46524 66.9688 8.89945 67.6636 8.89945C68.0527 8.89945 68.4451 8.89944 68.7925 8.85763V5.56089C68.7925 5.38721 68.9211 5.25856 69.053 5.25856H70.9185C71.0922 5.25856 71.2208 5.38721 71.2208 5.56089V10.4208C71.2208 10.6363 71.134 10.7231 70.9185 10.7681C70.1369 10.9418 69.1399 11.0705 67.7054 11.0705C66.0554 11.0705 63.582 10.1152 63.582 6.47111V4.64745C63.582 0.958319 65.8817 0.0480957 67.9659 0.0480957C69.3972 0.0480957 70.4393 0.263591 70.9603 0.39546C71.089 0.437273 71.2208 0.482301 71.2208 0.610954V2.12906C71.2208 2.30275 71.134 2.34456 71.0053 2.34456" fill="#F79007"/>
<path d="M79.4291 10.8488C78.9081 10.9356 78.1715 11.0224 76.6502 11.0224C74.7847 11.0224 73.1348 10.5464 73.1348 7.9412V3.16816C73.1348 0.562932 74.7847 0.0869141 76.6502 0.0869141C78.2134 0.0869141 78.9081 0.215568 79.4291 0.260596C79.6446 0.302409 79.7315 0.347436 79.7315 0.56293V1.90736C79.7315 2.08104 79.6028 2.20969 79.4291 2.20969H76.5216C75.8268 2.20969 75.6113 2.42519 75.6113 3.20676V4.50937H79.3423C79.516 4.50937 79.6446 4.63803 79.6446 4.81171V6.20116C79.6446 6.37485 79.516 6.5035 79.3423 6.5035H75.6113V8.02161C75.6113 8.75815 75.8719 9.01867 76.5216 9.01867H79.4291C79.6028 9.01867 79.7315 9.14732 79.7315 9.32101V10.6654C79.7315 10.7072 79.6446 10.7941 79.4291 10.8391" fill="#F79007"/>
<path d="M2.26271 22.8714H0.397241C0.223559 22.8714 0.136719 22.7427 0.136719 22.6109V12.801C0.136719 12.6274 0.223559 12.5405 0.397241 12.5405H2.26271C2.43639 12.5405 2.52324 12.6692 2.52324 12.801V22.6109C2.52324 22.7395 2.43639 22.8714 2.26271 22.8714Z" fill="#F79007"/>
<path d="M11.0311 14.4928H8.77325V22.6077C8.77325 22.7813 8.6446 22.8682 8.51273 22.8682H6.68907C6.51539 22.8682 6.42855 22.7395 6.42855 22.6077V14.4928H4.17068C3.997 14.4928 3.91016 14.3642 3.91016 14.2323V12.801C3.91016 12.6274 4.03881 12.5405 4.17068 12.5405H11.0697C11.2434 12.5405 11.372 12.6692 11.372 12.801V14.2323C11.3302 14.361 11.1984 14.4928 11.0247 14.4928" fill="#F79007"/>
<path d="M18.9721 23.0001C17.8882 23.0001 17.0616 22.8715 16.325 22.6978C16.1964 22.656 16.0645 22.5691 16.0645 22.4373V21.0928C16.0645 20.9191 16.1932 20.8323 16.325 20.8323H16.3669C16.9297 20.8741 18.451 21.006 19.0139 21.006C19.9691 21.006 20.2715 20.7036 20.2715 20.0507C20.2715 19.6616 20.0978 19.4428 19.3613 19.0086L17.4508 17.8797C16.1481 17.0981 15.8008 16.2297 15.8008 15.2327C15.8008 13.7146 16.6692 12.4988 19.358 12.4988C20.3551 12.4988 21.7896 12.6725 22.3106 12.8011C22.4393 12.8429 22.5261 12.888 22.5261 13.0616V14.4511C22.5261 14.5797 22.4843 14.6666 22.3106 14.6666H22.2688C21.8797 14.6248 20.2715 14.4929 19.3162 14.4929C18.5347 14.4929 18.2323 14.7084 18.2323 15.2294C18.2323 15.6186 18.406 15.7923 19.1426 16.1847L20.9212 17.1399C22.3525 17.9215 22.7867 18.8317 22.7867 19.9607C22.7448 21.3919 21.7896 23.0001 18.9689 23.0001" fill="#F79007"/>
<path d="M30.3413 22.7844C29.8653 22.8712 29.1255 22.958 27.6492 22.958C25.8706 22.958 24.2656 22.482 24.2656 19.9636V15.3643C24.2656 12.8459 25.8706 12.3699 27.6492 12.3699C29.1673 12.3699 29.862 12.4985 30.3413 12.5436C30.515 12.5854 30.6018 12.6304 30.6018 12.8041V14.1067C30.6018 14.2804 30.4732 14.3672 30.3413 14.3672H27.5206C26.8709 14.3672 26.6103 14.5827 26.6103 15.3225V16.5801H30.2126C30.3863 16.5801 30.4732 16.7087 30.4732 16.8406V18.1432C30.4732 18.3169 30.3445 18.4037 30.2126 18.4037H26.6103V19.88C26.6103 20.6165 26.8258 20.8353 27.5206 20.8353H30.3413C30.515 20.8353 30.6018 20.9639 30.6018 21.0958V22.3984C30.6436 22.7007 30.56 22.7876 30.3413 22.7876" fill="#F79007"/>
<path d="M38.3267 22.7394C38.0243 22.8262 37.2428 22.9549 36.2425 22.9549C34.1165 22.9549 32.1191 21.8259 32.1191 18.5292V16.7924C32.1191 13.4956 34.1165 12.3667 36.2425 12.3667C37.1977 12.3667 38.0211 12.4954 38.3267 12.5822C38.5003 12.624 38.629 12.7108 38.629 12.8845V14.229C38.629 14.4026 38.5422 14.4895 38.3685 14.4895H38.3267C37.8056 14.4477 37.024 14.3608 36.2875 14.3608C35.3323 14.3608 34.5507 14.8819 34.5507 16.7055V18.4424C34.5507 20.3078 35.3323 20.7871 36.2875 20.7871C37.0691 20.7871 37.8056 20.7002 38.3267 20.6584H38.3685C38.5422 20.6584 38.629 20.7871 38.629 20.9189V22.437C38.629 22.6107 38.5422 22.6976 38.3267 22.7394Z" fill="#F79007"/>
<path d="M47.355 22.7395C46.7921 22.8264 45.0553 22.955 44.3155 22.955C41.8422 22.955 40.1504 22.1316 40.1504 18.9635V12.801C40.1504 12.6274 40.279 12.5405 40.4109 12.5405H42.2346C42.4083 12.5405 42.4951 12.6692 42.4951 12.801V19.0086C42.4951 20.4398 42.8843 21.0059 44.1451 21.0059C44.6211 21.0059 45.3158 20.9641 45.7951 20.9191V12.8043C45.7951 12.6306 45.9237 12.5437 46.0556 12.5437H47.8792C48.0529 12.5437 48.1816 12.6724 48.1816 12.8043V21.7875C48.2234 22.4822 47.9661 22.6559 47.3582 22.7427" fill="#F79007"/>
<path d="M57.9432 22.8711H55.8172C55.6436 22.8711 55.6017 22.7424 55.5567 22.6106L53.6912 19.0951H53.5176C53.2152 19.0951 52.781 19.0533 52.5205 19.0533V22.5688C52.5205 22.7424 52.3918 22.8293 52.26 22.8293H50.4363C50.2626 22.8293 50.1758 22.7006 50.1758 22.5688V13.2382C50.1758 12.7622 50.3495 12.6303 50.7837 12.5885C51.4334 12.5016 52.6073 12.4148 53.6044 12.4148C55.9909 12.4148 57.8146 13.1964 57.8146 15.6697V15.8434C57.8146 17.3197 57.033 18.2299 56.0359 18.6223L58.1201 22.5269C58.1619 22.5688 58.1619 22.6556 58.1619 22.7006C58.1201 22.7875 58.0751 22.8743 57.9464 22.8743M55.4281 15.6697C55.4281 14.8013 54.7784 14.4121 53.6044 14.4121C53.4307 14.4121 52.6942 14.4539 52.5205 14.4539V17.146C52.6942 17.146 53.3439 17.1878 53.5176 17.1878C54.9939 17.1878 55.4281 16.7987 55.4281 15.8852V15.6697Z" fill="#F79007"/>
<path d="M61.7198 22.8714H59.8543C59.6806 22.8714 59.5938 22.7427 59.5938 22.6109V12.801C59.5938 12.6274 59.6806 12.5405 59.8543 12.5405H61.7198C61.8934 12.5405 61.9803 12.6692 61.9803 12.801V22.6109C61.9803 22.7395 61.8934 22.8714 61.7198 22.8714Z" fill="#F79007"/>
<path d="M70.4881 14.4928H68.2303V22.6077C68.2303 22.7813 68.1016 22.8682 67.9698 22.8682H66.1461C65.9724 22.8682 65.8856 22.7395 65.8856 22.6077V14.4928H63.6277C63.454 14.4928 63.3672 14.3642 63.3672 14.2323V12.801C63.3672 12.6274 63.4958 12.5405 63.6277 12.5405H70.5267C70.7004 12.5405 70.8291 12.6692 70.8291 12.801V14.2323C70.7873 14.361 70.6554 14.4928 70.4817 14.4928" fill="#F79007"/>
<path d="M79.9915 12.846L76.9971 18.8348V22.6108C76.9971 22.7845 76.8684 22.8713 76.7365 22.8713H74.8711C74.6974 22.8713 74.6105 22.7427 74.6105 22.6108V18.8348L71.5711 12.846C71.5293 12.8042 71.5293 12.7592 71.5293 12.7174C71.5293 12.5887 71.6161 12.5437 71.7448 12.5437H73.7839C73.9126 12.5437 73.9994 12.6724 74.0445 12.7592L75.7363 16.5352L77.4281 12.7592C77.4699 12.6305 77.5567 12.5437 77.6886 12.5437H79.7277C79.8564 12.5437 79.9432 12.6305 79.9432 12.7174C79.985 12.7592 79.985 12.8042 79.985 12.846" fill="#F79007"/>
</svg>
