<svg width="180" height="33" viewBox="0 0 180 33" fill="none" xmlns="http://www.w3.org/2000/svg">
<mask id="mask0_503_1149" style="mask-type:luminance" maskUnits="userSpaceOnUse" x="0" y="0" width="59" height="33">
<path d="M0.00449909 12.503V26.7063C0.00449909 29.8016 2.49244 32.3525 5.58774 32.3525H16.8172C20.097 32.3525 22.7064 29.6801 22.7064 26.4049V24.0969H7.83274V12.5615L0 12.503H0.00449909ZM25.4418 12.503V32.3525H27.2639C30.6021 32.3525 33.333 29.6217 33.333 26.2204V12.4985H25.4418V12.503ZM36.0639 12.503V15.3554C36.0639 18.5137 38.6148 21.1231 41.7686 21.1231H48.688C49.4754 21.1231 50.1457 21.7889 50.1457 22.6392C50.1457 23.4895 49.4799 24.1554 48.688 24.1554H41.8901C38.6733 24.1554 36.0639 26.7648 36.0639 30.0446V32.474H53.0026C56.1609 32.474 58.7073 29.8646 58.7073 26.7063V18.5721C58.7073 15.2339 56.0349 12.503 52.6966 12.503H36.0639ZM5.89367 0.23877C2.61391 0.23877 0.00449909 2.91117 0.00449909 6.18643V9.52468H17.5506C20.4029 9.52468 22.7109 7.2167 22.7109 4.30585V0.175781L5.89367 0.23427V0.23877ZM31.268 0.23877C28.0512 0.23877 25.4418 2.84818 25.4418 6.12794V9.52918H33.2745V0.243267H31.2725L31.268 0.23877ZM42.0745 0.23877C38.7363 0.23877 36.0639 2.96965 36.0639 6.3079V9.52468H53.547C56.3993 9.52468 58.7073 7.2167 58.7073 4.30585V0.23877H42.0745Z" fill="white"/>
</mask>
<g mask="url(#mask0_503_1149)">
<path d="M-5.64258 31.2636L1.94721 -10.3206L64.3527 1.33632L56.7629 42.916L-5.64258 31.2636Z" fill="#005252"/>
</g>
<path d="M77.1036 15.1167C76.6807 15.2382 75.5245 15.4811 74.0668 15.4811C70.9715 15.4811 68.1191 13.8435 68.1191 9.04757V6.49665C68.1191 1.70073 71.0345 0.121582 74.0668 0.121582C75.4615 0.121582 76.6762 0.30154 77.1036 0.485999C77.4051 0.544486 77.5265 0.66596 77.5265 0.908905V2.85247C77.5265 3.09541 77.4051 3.27537 77.1036 3.27537H77.0451C76.2578 3.21689 75.1646 3.09541 74.0713 3.09541C72.6766 3.09541 71.5834 3.82425 71.5834 6.49665V9.04757C71.5834 11.72 72.6766 12.4488 74.0713 12.4488C75.1646 12.4488 76.3163 12.3273 77.0451 12.2688H77.1036C77.4051 12.2688 77.5265 12.4488 77.5265 12.6918V14.6353C77.5265 14.9367 77.3466 14.9997 77.1036 15.1212" fill="#005252"/>
<path d="M90.5785 15.2337H87.9061C87.6632 15.2337 87.5417 15.0537 87.5417 14.8108V9.89338H83.1687V14.8108C83.1687 15.0537 82.9887 15.2337 82.8043 15.2337H80.1319C79.8889 15.2337 79.709 15.0537 79.709 14.8108V4.55308C79.709 0.908904 81.8955 0.121582 84.6264 0.121582H86.0841C88.8149 0.121582 90.9385 0.908904 90.9385 4.55308V14.8108C90.9969 15.0537 90.817 15.2337 90.574 15.2337M87.5372 4.54858C87.5372 3.45533 87.2358 3.09091 86.0796 3.09091H84.6219C83.5286 3.09091 83.1642 3.45533 83.1642 4.54858V7.09951H87.5372V4.54858Z" fill="#005252"/>
<path d="M107.031 15.2338H104.358C104.178 15.2338 104.057 15.0538 104.057 14.8109V6.43377C104.057 6.3123 103.998 6.25381 103.935 6.25381C103.872 6.25381 103.814 6.3123 103.755 6.37529L101.933 9.71354C101.812 9.95648 101.569 10.078 101.326 10.078H99.6883C99.4453 10.078 99.2024 9.95648 99.0809 9.71354L97.2588 6.37529C97.2003 6.25382 97.1373 6.25381 97.0789 6.25381C97.0204 6.25381 96.9574 6.25382 96.9574 6.43377V14.8739C96.9574 15.1168 96.8359 15.2968 96.656 15.2968H93.9836C93.8036 15.2968 93.6191 15.2383 93.6191 14.9953V0.972004C93.6191 0.549099 93.9206 0.306152 94.348 0.306152H96.2285C96.6515 0.306152 96.9574 0.486111 97.1373 0.850529L100.233 6.61824C100.291 6.79819 100.354 6.86118 100.476 6.86118C100.534 6.86118 100.597 6.73971 100.719 6.61824L103.814 0.850529C103.994 0.486111 104.3 0.306152 104.723 0.306152H106.603C107.026 0.306152 107.332 0.607586 107.332 1.03499V14.9953C107.391 15.1753 107.211 15.2383 107.031 15.2383" fill="#005252"/>
<path d="M115.044 15.4181C113.708 15.4181 112.129 15.2967 111.341 15.1752C110.554 15.0537 110.248 14.7523 110.248 13.839V1.63774C110.248 0.72894 110.549 0.423012 111.341 0.30154C112.007 0.180067 113.649 0.0585938 114.923 0.0585938C118.747 0.0585938 121.298 1.08886 121.298 4.24715V4.67006C121.298 6.00626 120.69 7.09951 119.597 7.64389C120.69 8.18826 121.419 9.22303 121.419 10.6177V10.9192C121.361 14.4419 118.504 15.4136 115.044 15.4136M117.959 4.54858C117.959 3.45533 117.23 2.91095 115.165 2.91095H113.649V6.37067H115.894C117.473 6.37067 117.959 5.64184 117.959 4.79153V4.54858ZM118.018 10.6177C118.018 9.64594 117.473 8.79563 115.894 8.79563H113.649V12.5613H115.287C117.352 12.5613 118.018 11.8954 118.018 10.8022V10.6222V10.6177Z" fill="#005252"/>
<path d="M134.956 15.2337H131.86C131.617 15.2337 131.559 15.0537 131.438 14.8108L128.707 9.71342H128.464C128.041 9.71342 127.433 9.65494 127.006 9.65494V14.7523C127.006 14.9952 126.826 15.1752 126.583 15.1752H123.974C123.731 15.1752 123.551 14.9952 123.551 14.7523V1.33631C123.551 0.670457 123.852 0.486 124.46 0.364528C125.368 0.243055 127.132 0.121582 128.527 0.121582C131.928 0.121582 134.596 1.27332 134.596 4.85452V5.09746C134.596 7.22098 133.444 8.55718 131.986 9.10606L135.023 14.8108C135.082 14.8693 135.082 14.9907 135.082 15.0537C135.262 15.1752 135.203 15.2337 134.96 15.2337M131.379 4.79153C131.379 3.5768 130.407 2.96944 128.707 2.96944C128.405 2.96944 127.37 3.02793 127.127 3.02793V6.91505C127.37 6.91505 128.342 6.97354 128.585 6.97354C130.709 6.97354 131.379 6.42916 131.379 5.02998V4.78703V4.79153Z" fill="#005252"/>
<path d="M140.48 15.2337H137.749C137.506 15.2337 137.385 15.0537 137.385 14.8107V0.665931C137.385 0.422985 137.506 0.301514 137.749 0.301514H140.48C140.723 0.301514 140.844 0.481472 140.844 0.665931V14.8692C140.844 15.0492 140.723 15.2337 140.48 15.2337Z" fill="#005252"/>
<path d="M148.552 15.4183C146.852 15.4183 145.092 15.2383 144.242 15.1168C143.878 15.0584 143.635 14.8739 143.635 14.388V1.03051C143.635 0.544622 143.815 0.364665 144.242 0.301679C145.092 0.180206 146.852 0.000244141 148.552 0.000244141C152.561 0.000244141 154.986 2.12377 154.986 6.37531V8.98472C154.986 13.2948 152.556 15.4183 148.552 15.4183ZM151.589 6.4338C151.589 3.70291 150.437 2.97408 148.615 2.97408C148.129 2.97408 147.463 2.97408 147.157 3.03256V12.4399C147.459 12.4399 148.066 12.4984 148.615 12.4984C150.437 12.4984 151.589 11.7696 151.589 9.03871V6.4293V6.4338Z" fill="#005252"/>
<path d="M167.435 3.27541C166.405 3.21692 164.884 3.09545 163.184 3.09545C161.483 3.09545 160.511 3.88277 160.511 6.49668V9.04761C160.511 11.8415 161.784 12.4488 162.756 12.4488C163.3 12.4488 163.849 12.4488 164.335 12.3904V7.77889C164.335 7.53595 164.515 7.35599 164.7 7.35599H167.309C167.552 7.35599 167.732 7.53595 167.732 7.77889V14.5769C167.732 14.8783 167.611 14.9998 167.309 15.0628C166.216 15.3057 164.821 15.4857 162.815 15.4857C160.507 15.4857 157.047 14.1495 157.047 9.05211V6.50118C157.047 1.34084 160.264 0.067627 163.179 0.067627C165.181 0.067627 166.639 0.36906 167.368 0.553518C167.548 0.612005 167.732 0.67499 167.732 0.85495V2.97847C167.732 3.22142 167.611 3.2799 167.431 3.2799" fill="#005252"/>
<path d="M179.213 15.1752C178.484 15.2967 177.454 15.4181 175.326 15.4181C172.716 15.4181 170.408 14.7523 170.408 11.1081V4.43161C170.408 0.787433 172.716 0.121582 175.326 0.121582C177.512 0.121582 178.484 0.301542 179.213 0.364528C179.514 0.423015 179.636 0.485998 179.636 0.78743V2.66801C179.636 2.91095 179.456 3.09091 179.213 3.09091H175.146C174.174 3.09091 173.872 3.39234 173.872 4.4856V6.30769H179.091C179.334 6.30769 179.514 6.48765 179.514 6.7306V8.67416C179.514 8.9171 179.334 9.09706 179.091 9.09706H173.872V11.2206C173.872 12.2509 174.237 12.6153 175.146 12.6153H179.213C179.456 12.6153 179.636 12.7952 179.636 13.0382V14.9188C179.636 14.9772 179.514 15.0987 179.213 15.1617" fill="#005252"/>
<path d="M71.2727 31.9925H68.6632C68.4203 31.9925 68.2988 31.8125 68.2988 31.6281V17.9062C68.2988 17.6632 68.4203 17.5417 68.6632 17.5417H71.2727C71.5156 17.5417 71.6371 17.7217 71.6371 17.9062V31.6281C71.6371 31.808 71.5156 31.9925 71.2727 31.9925Z" fill="#005252"/>
<path d="M83.5369 20.2726H80.3786V31.6236C80.3786 31.8665 80.1987 31.988 80.0142 31.988H77.4633C77.2204 31.988 77.0989 31.808 77.0989 31.6236V20.2726H73.9406C73.6976 20.2726 73.5762 20.0927 73.5762 19.9082V17.9062C73.5762 17.6632 73.7561 17.5417 73.9406 17.5417H83.5909C83.8339 17.5417 84.0138 17.7217 84.0138 17.9062V19.9082C83.9553 20.0882 83.7709 20.2726 83.5279 20.2726" fill="#005252"/>
<path d="M94.645 32.1726C93.1288 32.1726 91.9726 31.9926 90.9423 31.7497C90.7624 31.6912 90.5779 31.5697 90.5779 31.3853V29.5047C90.5779 29.2617 90.7579 29.1403 90.9423 29.1403H91.0008C91.7881 29.1988 93.9161 29.3832 94.7035 29.3832C96.0397 29.3832 96.4626 28.9603 96.4626 28.047C96.4626 27.5026 96.2196 27.1967 95.1894 26.5894L92.517 25.0102C90.6949 23.917 90.209 22.7022 90.209 21.3075C90.209 19.184 91.4237 17.4834 95.1849 17.4834C96.5795 17.4834 98.5861 17.7263 99.3149 17.9063C99.4949 17.9648 99.6164 18.0278 99.6164 18.2707V20.2143C99.6164 20.3942 99.5579 20.5157 99.3149 20.5157H99.2564C98.7121 20.4572 96.4626 20.2728 95.1264 20.2728C94.0331 20.2728 93.6102 20.5742 93.6102 21.303C93.6102 21.8474 93.8532 22.0904 94.8834 22.6392L97.3714 23.9754C99.3734 25.0687 99.9808 26.3419 99.9808 27.921C99.9223 29.9231 98.5861 32.1726 94.6405 32.1726" fill="#005252"/>
<path d="M110.549 31.8709C109.884 31.9924 108.849 32.1139 106.784 32.1139C104.296 32.1139 102.051 31.448 102.051 27.9253V21.4918C102.051 17.9691 104.296 17.3032 106.784 17.3032C108.907 17.3032 109.879 17.4832 110.549 17.5462C110.792 17.6047 110.914 17.6676 110.914 17.9106V19.7327C110.914 19.9756 110.734 20.0971 110.549 20.0971H106.604C105.695 20.0971 105.331 20.3985 105.331 21.4333V23.1924H110.369C110.612 23.1924 110.734 23.3724 110.734 23.5568V25.3789C110.734 25.6218 110.554 25.7433 110.369 25.7433H105.331V27.8084C105.331 28.8386 105.632 29.1446 106.604 29.1446H110.549C110.792 29.1446 110.914 29.3245 110.914 29.509V31.3311C110.972 31.754 110.855 31.8754 110.549 31.8754" fill="#005252"/>
<path d="M121.72 31.8081C121.297 31.9295 120.204 32.1095 118.805 32.1095C115.831 32.1095 113.037 30.5303 113.037 25.9189V23.4894C113.037 18.878 115.831 17.2988 118.805 17.2988C120.141 17.2988 121.293 17.4788 121.72 17.6003C121.963 17.6587 122.143 17.7802 122.143 18.0232V19.9037C122.143 20.1467 122.022 20.2682 121.779 20.2682H121.72C120.991 20.2097 119.898 20.0882 118.868 20.0882C117.532 20.0882 116.438 20.817 116.438 23.368V25.7974C116.438 28.4068 117.532 29.0772 118.868 29.0772C119.961 29.0772 120.991 28.9557 121.72 28.8972H121.779C122.022 28.8972 122.143 29.0772 122.143 29.2616V31.3852C122.143 31.6281 122.022 31.7496 121.72 31.8081Z" fill="#005252"/>
<path d="M134.349 31.808C133.562 31.9295 131.132 32.1095 130.098 32.1095C126.638 32.1095 124.271 30.9577 124.271 26.5262V17.9062C124.271 17.6632 124.451 17.5417 124.636 17.5417H127.187C127.43 17.5417 127.551 17.7217 127.551 17.9062V26.5892C127.551 28.5913 128.096 29.3831 129.859 29.3831C130.525 29.3831 131.497 29.3246 132.167 29.2616V17.9107C132.167 17.6677 132.347 17.5462 132.532 17.5462H135.083C135.325 17.5462 135.505 17.7262 135.505 17.9107V30.4763C135.564 31.4481 135.204 31.6911 134.354 31.8125" fill="#005252"/>
<path d="M149.16 31.9924H146.186C145.943 31.9924 145.885 31.8125 145.822 31.628L143.212 26.7106H142.969C142.546 26.7106 141.939 26.6521 141.575 26.6521V31.5695C141.575 31.8125 141.395 31.9339 141.21 31.9339H138.659C138.416 31.9339 138.295 31.754 138.295 31.5695V18.518C138.295 17.8521 138.538 17.6676 139.145 17.6092C140.054 17.4877 141.696 17.3662 143.091 17.3662C146.429 17.3662 148.98 18.4595 148.98 21.9192V22.1621C148.98 24.2272 147.887 25.5004 146.492 26.0493L149.407 31.511C149.466 31.5695 149.466 31.691 149.466 31.754C149.407 31.8754 149.344 31.9969 149.164 31.9969M145.642 21.9192C145.642 20.7045 144.733 20.1601 143.091 20.1601C142.848 20.1601 141.818 20.2186 141.575 20.2186V23.9842C141.818 23.9842 142.726 24.0427 142.969 24.0427C145.034 24.0427 145.642 23.4983 145.642 22.2206V21.9192Z" fill="#005252"/>
<path d="M154.441 31.9925H151.831C151.588 31.9925 151.467 31.8125 151.467 31.6281V17.9062C151.467 17.6632 151.588 17.5417 151.831 17.5417H154.441C154.684 17.5417 154.805 17.7217 154.805 17.9062V31.6281C154.805 31.808 154.684 31.9925 154.441 31.9925Z" fill="#005252"/>
<path d="M166.705 20.2726H163.547V31.6236C163.547 31.8665 163.367 31.988 163.182 31.988H160.631C160.388 31.988 160.267 31.808 160.267 31.6236V20.2726H157.109C156.866 20.2726 156.744 20.0927 156.744 19.9082V17.9062C156.744 17.6632 156.924 17.5417 157.109 17.5417H166.759C167.002 17.5417 167.182 17.7217 167.182 17.9062V19.9082C167.123 20.0882 166.939 20.2726 166.696 20.2726" fill="#005252"/>
<path d="M179.999 17.969L175.81 26.3462V31.628C175.81 31.8709 175.63 31.9924 175.446 31.9924H172.837C172.594 31.9924 172.472 31.8124 172.472 31.628V26.3462L168.221 17.969C168.162 17.9106 168.162 17.8476 168.162 17.7891C168.162 17.6091 168.284 17.5461 168.464 17.5461H171.316C171.496 17.5461 171.617 17.7261 171.68 17.8476L174.047 23.1294L176.413 17.8476C176.472 17.6676 176.593 17.5461 176.778 17.5461H179.63C179.81 17.5461 179.931 17.6676 179.931 17.7891C179.99 17.8476 179.99 17.9106 179.99 17.969" fill="#005252"/>
</svg>
