<svg width="572" height="160" viewBox="0 0 572 160" fill="none" xmlns="http://www.w3.org/2000/svg">
<path d="M45.5964 76.2312C43.4818 76.8386 37.7006 78.0533 30.4122 78.0533C14.9357 78.0533 0.673828 69.8651 0.673828 45.8855L0.673828 33.1308C0.673828 9.15112 15.2506 1.25537 30.4122 1.25537C37.3857 1.25537 43.4593 2.15517 45.5964 3.07746C47.1035 3.3699 47.7109 3.97727 47.7109 5.192V14.9098C47.7109 16.1246 47.1035 17.0244 45.5964 17.0244H45.3039C41.3673 16.7319 35.901 16.1246 30.4347 16.1246C23.4613 16.1246 17.995 19.7688 17.995 33.1308L17.995 45.8855C17.995 59.2475 23.4613 62.8917 30.4347 62.8917C35.901 62.8917 41.6597 62.2843 45.3039 61.9919H45.5964C47.1035 61.9919 47.7109 62.8917 47.7109 64.1064L47.7109 73.8243C47.7109 75.3314 46.8111 75.6464 45.5964 76.2537" fill="white"/>
<path d="M112.969 76.8166H99.607C98.3923 76.8166 97.7849 75.9168 97.7849 74.7021V50.115H75.9198V74.7021C75.9198 75.9168 75.02 76.8166 74.0977 76.8166H60.7356C59.5209 76.8166 58.6211 75.9168 58.6211 74.7021L58.6211 23.4134C58.6211 5.19248 69.5537 1.25586 83.2082 1.25586L90.4966 1.25586C104.151 1.25586 114.769 5.19248 114.769 23.4134V74.7021C115.061 75.9168 114.161 76.8166 112.947 76.8166M97.7624 23.3909C97.7624 17.9247 96.2553 16.1026 90.474 16.1026H83.1857C77.7194 16.1026 75.8973 17.9247 75.8973 23.3909V36.1456H97.7624V23.3909Z" fill="white"/>
<path d="M195.233 76.8167H181.871C180.972 76.8167 180.364 75.9169 180.364 74.7021V32.8164C180.364 32.2091 180.072 31.9166 179.757 31.9166C179.442 31.9166 179.149 32.2091 178.857 32.524L169.747 49.2153C169.139 50.43 167.924 51.0374 166.71 51.0374H158.522C157.307 51.0374 156.092 50.43 155.485 49.2153L146.374 32.524C146.082 31.9166 145.767 31.9166 145.474 31.9166C145.182 31.9166 144.867 31.9166 144.867 32.8164V75.0171C144.867 76.2318 144.26 77.1316 143.36 77.1316H129.998C129.098 77.1316 128.176 76.8392 128.176 75.6244V5.50749C128.176 3.39296 129.683 2.17822 131.82 2.17822L141.223 2.17822C143.337 2.17822 144.867 3.07802 145.767 4.90012L161.243 33.7387C161.536 34.6385 161.851 34.9535 162.458 34.9535C162.751 34.9535 163.066 34.3461 163.673 33.7387L179.149 4.90012C180.049 3.07802 181.579 2.17822 183.693 2.17822L193.096 2.17822C195.211 2.17822 196.741 3.68539 196.741 5.82242V75.6244C197.033 76.5242 196.133 76.8392 195.233 76.8392" fill="white"/>
<path d="M235.296 77.7384C228.615 77.7384 220.719 77.131 216.783 76.5237C212.846 75.9163 211.316 74.4091 211.316 69.8426V8.83617C211.316 4.29217 212.824 2.76253 216.783 2.15516C220.112 1.5478 228.323 0.94043 234.689 0.94043C253.81 0.94043 266.564 6.09178 266.564 21.8833V23.9978C266.564 30.6788 263.527 36.1451 258.061 38.867C263.527 41.5889 267.172 46.7628 267.172 53.7362V55.2434C266.879 72.857 252.595 77.7159 235.296 77.7159M249.873 23.3904C249.873 17.9242 246.229 15.2023 235.903 15.2023H228.323V32.5009H239.548C247.443 32.5009 249.873 28.8567 249.873 24.6052V23.3904ZM250.165 53.7362C250.165 48.8773 247.443 44.6257 239.548 44.6257H228.323V63.4541H236.511C246.836 63.4541 250.165 60.1248 250.165 54.6585V53.7587V53.7362Z" fill="white"/>
<path d="M334.861 76.8166H319.384C318.169 76.8166 317.877 75.9168 317.27 74.7021L303.615 49.2152H302.4C300.286 49.2152 297.249 48.9228 295.112 48.9228V74.4096C295.112 75.6244 294.212 76.5242 292.998 76.5242H279.95C278.736 76.5242 277.836 75.6244 277.836 74.4096V7.32951C277.836 4.00024 279.343 3.07796 282.38 2.47059C286.924 1.86323 295.742 1.25586 302.715 1.25586C319.722 1.25586 333.061 7.01457 333.061 24.9206V26.1353C333.061 36.753 327.302 43.434 320.014 46.1784L335.198 74.7021C335.491 74.9945 335.491 75.6019 335.491 75.9168C336.39 76.5242 336.098 76.8166 334.883 76.8166M316.977 24.6057C316.977 18.532 312.118 15.4952 303.615 15.4952C302.108 15.4952 296.934 15.7876 295.719 15.7876V35.2233C296.934 35.2233 301.793 35.5157 303.008 35.5157C313.625 35.5157 316.977 32.7939 316.977 25.7979V24.5832V24.6057Z" fill="white"/>
<path d="M362.484 76.8172H348.83C347.615 76.8172 347.008 75.9174 347.008 74.7026V3.97834C347.008 2.76361 347.615 2.15625 348.83 2.15625L362.484 2.15625C363.699 2.15625 364.306 3.05604 364.306 3.97834V74.9951C364.306 75.8949 363.699 76.8172 362.484 76.8172Z" fill="white"/>
<path d="M402.839 77.7379C394.336 77.7379 385.54 76.8381 381.289 76.2307C379.467 75.9383 378.252 75.016 378.252 72.5865V5.79882C378.252 3.36936 379.152 2.46957 381.289 2.15464C385.54 1.54727 394.336 0.647461 402.839 0.647461C422.882 0.647461 435.007 11.2651 435.007 32.5229V45.57C435.007 67.1202 422.86 77.7379 402.839 77.7379ZM418.023 32.8153C418.023 19.1609 412.264 15.5167 403.154 15.5167C400.724 15.5167 397.395 15.5167 395.866 15.8091V62.8462C397.373 62.8462 400.41 63.1386 403.154 63.1386C412.264 63.1386 418.023 59.4944 418.023 45.8399V32.7928V32.8153Z" fill="white"/>
<path d="M497.25 17.0243C492.098 16.7319 484.495 16.1245 475.992 16.1245C467.489 16.1245 462.63 20.0611 462.63 33.1307V45.8854C462.63 59.8548 468.996 62.8916 473.855 62.8916C476.577 62.8916 479.321 62.8916 481.751 62.5992V39.5418C481.751 38.3271 482.65 37.4273 483.573 37.4273H496.62C497.835 37.4273 498.734 38.3271 498.734 39.5418V73.5318C498.734 75.0389 498.127 75.6463 496.62 75.9612C491.153 77.176 484.18 78.0758 474.147 78.0758C462.607 78.0758 445.309 71.3947 445.309 45.9079V33.1532C445.309 7.35145 461.393 0.985352 475.969 0.985352C485.98 0.985352 493.268 2.49252 496.912 3.41482C497.812 3.70725 498.734 4.02218 498.734 4.92198V15.5396C498.734 16.7544 498.127 17.0468 497.227 17.0468" fill="white"/>
<path d="M556.144 76.5237C552.5 77.131 547.348 77.7384 536.708 77.7384C523.661 77.7384 512.121 74.4091 512.121 56.1882V22.8056C512.121 4.58464 523.661 1.25537 536.708 1.25537C547.641 1.25537 552.5 2.15517 556.144 2.4701C557.651 2.76254 558.258 3.07746 558.258 4.58462V13.9875C558.258 15.2023 557.359 16.1021 556.144 16.1021H535.808C530.949 16.1021 529.442 17.6092 529.442 23.0755V32.186H555.536C556.751 32.186 557.651 33.0858 557.651 34.3005V44.0184C557.651 45.2331 556.751 46.1329 555.536 46.1329H529.442V56.7506C529.442 61.9019 531.264 63.724 535.808 63.724H556.144C557.359 63.724 558.258 64.6238 558.258 65.8385V75.2414C558.258 75.5339 557.651 76.1413 556.144 76.4562" fill="white"/>
<path d="M27.9199 158.949H14.8729C13.6581 158.949 13.0508 158.049 13.0508 157.127L13.0508 88.5169C13.0508 87.3022 13.6581 86.6948 14.8729 86.6948H27.9199C29.1347 86.6948 29.7421 87.5946 29.7421 88.5169L29.7421 157.127C29.7421 158.026 29.1347 158.949 27.9199 158.949Z" fill="#F79007"/>
<path d="M89.2415 100.349H73.4499V157.104C73.4499 158.318 72.5502 158.926 71.6279 158.926H58.8732C57.6585 158.926 57.0511 158.026 57.0511 157.104V100.349H41.2596C40.0449 100.349 39.4375 99.449 39.4375 98.5267V88.5164C39.4375 87.3017 40.3373 86.6943 41.2596 86.6943H89.5114C90.7261 86.6943 91.6259 87.5941 91.6259 88.5164V98.5267C91.3335 99.4265 90.4112 100.349 89.1965 100.349" fill="#F79007"/>
<path d="M144.782 159.848C137.201 159.848 131.42 158.948 126.268 157.733C125.368 157.441 124.446 156.833 124.446 155.911V146.508C124.446 145.293 125.346 144.686 126.268 144.686H126.561C130.497 144.978 141.137 145.901 145.074 145.901C151.755 145.901 153.87 143.786 153.87 139.22C153.87 136.498 152.655 134.968 147.504 131.931L134.141 124.036C125.031 118.569 122.602 112.496 122.602 105.522C122.602 94.9045 128.675 86.4014 147.481 86.4014C154.454 86.4014 164.487 87.6161 168.131 88.5159C169.031 88.8083 169.639 89.1233 169.639 90.338V100.056C169.639 100.956 169.346 101.563 168.131 101.563H167.839C165.117 101.271 153.87 100.348 147.189 100.348C141.722 100.348 139.608 101.855 139.608 105.5C139.608 108.222 140.823 109.436 145.974 112.181L158.414 118.862C168.424 124.328 171.461 130.694 171.461 138.59C171.168 148.6 164.487 159.848 144.759 159.848" fill="#F79007"/>
<path d="M224.302 158.339C220.972 158.947 215.799 159.554 205.473 159.554C193.034 159.554 181.809 156.225 181.809 138.611V106.443C181.809 88.8297 193.034 85.5005 205.473 85.5005C216.091 85.5005 220.95 86.4003 224.302 86.7152C225.516 87.0076 226.124 87.3226 226.124 88.5373V97.6478C226.124 98.8625 225.224 99.4699 224.302 99.4699H204.574C200.03 99.4699 198.207 100.977 198.207 106.151V114.946H223.402C224.617 114.946 225.224 115.846 225.224 116.769V125.879C225.224 127.094 224.324 127.701 223.402 127.701H198.207V138.026C198.207 143.178 199.715 144.707 204.574 144.707H224.302C225.516 144.707 226.124 145.607 226.124 146.529V155.64C226.416 157.754 225.831 158.362 224.302 158.362" fill="#F79007"/>
<path d="M280.156 158.024C278.041 158.632 272.575 159.532 265.579 159.532C250.71 159.532 236.74 151.636 236.74 128.578V116.431C236.74 93.3738 250.71 85.478 265.579 85.478C272.26 85.478 278.019 86.3778 280.156 86.9852C281.37 87.2776 282.27 87.885 282.27 89.0997V98.5026C282.27 99.7174 281.663 100.325 280.448 100.325H280.156C276.511 100.032 271.045 99.4249 265.894 99.4249C259.213 99.4249 253.746 103.069 253.746 115.824V127.971C253.746 141.018 259.213 144.37 265.894 144.37C271.36 144.37 276.511 143.763 280.156 143.47H280.448C281.663 143.47 282.27 144.37 282.27 145.292V155.91C282.27 157.125 281.663 157.732 280.156 158.024Z" fill="#F79007"/>
<path d="M343.301 158.026C339.364 158.633 327.217 159.533 322.043 159.533C304.744 159.533 292.912 153.774 292.912 131.617V88.5164C292.912 87.3017 293.812 86.6943 294.734 86.6943H307.489C308.704 86.6943 309.311 87.5941 309.311 88.5164V131.932C309.311 141.942 312.033 145.901 320.851 145.901C324.18 145.901 329.039 145.609 332.391 145.294V88.5389C332.391 87.3242 333.291 86.7168 334.213 86.7168H346.968C348.182 86.7168 349.082 87.6166 349.082 88.5389V151.367C349.375 156.226 347.575 157.441 343.323 158.049" fill="#F79007"/>
<path d="M417.353 158.947H402.484C401.269 158.947 400.976 158.047 400.662 157.125L387.614 132.538H386.4C384.285 132.538 381.248 132.246 379.426 132.246V156.833C379.426 158.047 378.526 158.655 377.604 158.655H364.849C363.635 158.655 363.027 157.755 363.027 156.833V91.5746C363.027 88.2454 364.242 87.3231 367.279 87.0306C371.823 86.4233 380.034 85.8159 387.007 85.8159C403.698 85.8159 416.453 91.2822 416.453 108.581V109.796C416.453 120.121 410.987 126.487 404.013 129.231L418.59 156.54C418.882 156.833 418.882 157.44 418.882 157.755C418.59 158.362 418.275 158.97 417.375 158.97M399.762 108.581C399.762 102.507 395.218 99.7853 387.007 99.7853C385.792 99.7853 380.641 100.078 379.426 100.078V118.906C380.641 118.906 385.185 119.199 386.4 119.199C396.725 119.199 399.762 116.477 399.762 110.088V108.581Z" fill="#F79007"/>
<path d="M443.764 158.948H430.717C429.502 158.948 428.895 158.049 428.895 157.126V88.5164C428.895 87.3017 429.502 86.6943 430.717 86.6943H443.764C444.978 86.6943 445.586 87.5941 445.586 88.5164V157.126C445.586 158.026 444.978 158.948 443.764 158.948Z" fill="#F79007"/>
<path d="M505.085 100.349H489.294V157.104C489.294 158.318 488.394 158.926 487.472 158.926H474.717C473.502 158.926 472.895 158.026 472.895 157.104V100.349H457.103C455.889 100.349 455.281 99.449 455.281 98.5267V88.5164C455.281 87.3017 456.181 86.6943 457.103 86.6943H505.355C506.57 86.6943 507.47 87.5941 507.47 88.5164V98.5267C507.177 99.4265 506.255 100.349 505.04 100.349" fill="#F79007"/>
<path d="M571.557 88.8308L550.615 130.717V157.126C550.615 158.34 549.715 158.948 548.792 158.948H535.745C534.531 158.948 533.923 158.048 533.923 157.126V130.717L512.665 88.8308C512.373 88.5384 512.373 88.2235 512.373 87.931C512.373 87.0312 512.98 86.7163 513.88 86.7163H528.142C529.042 86.7163 529.649 87.6161 529.964 88.2235L541.796 114.633L553.629 88.2235C553.921 87.3237 554.529 86.7163 555.451 86.7163H569.713C570.613 86.7163 571.22 87.3237 571.22 87.931C571.512 88.2235 571.512 88.5384 571.512 88.8308" fill="#F79007"/>
</svg>
