<svg width="28" height="28" viewBox="0 0 28 28" fill="none" xmlns="http://www.w3.org/2000/svg">
<path d="M17.254 11.0005C17.8507 11.0005 18.423 11.2375 18.845 11.6595C19.2669 12.0815 19.504 12.6538 19.504 13.2505V19.4995C19.504 20.9584 18.9244 22.3576 17.8928 23.3893C16.8612 24.4209 15.462 25.0005 14.003 25.0005C12.544 25.0005 11.1448 24.4209 10.1132 23.3893C9.08157 22.3576 8.502 20.9584 8.502 19.4995V13.2505C8.502 12.6538 8.73905 12.0815 9.16101 11.6595C9.58297 11.2375 10.1553 11.0005 10.752 11.0005H17.254ZM17.254 12.5005H10.752C10.5531 12.5005 10.3623 12.5795 10.2217 12.7202C10.081 12.8608 10.002 13.0516 10.002 13.2505V19.4995C10.002 20.5606 10.4235 21.5783 11.1739 22.3286C11.9242 23.079 12.9419 23.5005 14.003 23.5005C15.0641 23.5005 16.0818 23.079 16.8321 22.3286C17.5825 21.5783 18.004 20.5606 18.004 19.4995V13.2505C18.004 13.0516 17.925 12.8608 17.7843 12.7202C17.6437 12.5795 17.4529 12.5005 17.254 12.5005ZM4.25 11.0005H8.406C8.00452 11.4185 7.7224 11.9365 7.589 12.5005H4.25C4.05109 12.5005 3.86032 12.5795 3.71967 12.7202C3.57902 12.8608 3.5 13.0516 3.5 13.2505V18.4995C3.49987 19.0012 3.62554 19.495 3.86553 19.9357C4.10551 20.3763 4.45215 20.7497 4.87374 21.0218C5.29532 21.2939 5.7784 21.4559 6.27877 21.4931C6.77915 21.5302 7.28086 21.4413 7.738 21.2345C7.871 21.7245 8.062 22.1905 8.302 22.6265C7.61687 22.9256 6.86802 23.0494 6.12307 22.9866C5.37812 22.9238 4.66054 22.6765 4.03513 22.2669C3.40971 21.8574 2.89616 21.2985 2.54085 20.6407C2.18554 19.983 1.99966 19.2471 2 18.4995V13.2505C2 12.6538 2.23705 12.0815 2.65901 11.6595C3.08097 11.2375 3.65326 11.0005 4.25 11.0005ZM23.75 11.0005C24.3467 11.0005 24.919 11.2375 25.341 11.6595C25.7629 12.0815 26 12.6538 26 13.2505V18.5005C26.0003 19.2477 25.8146 19.9831 25.4595 20.6406C25.1045 21.298 24.5914 21.8567 23.9664 22.2662C23.3415 22.6757 22.6244 22.9232 21.8799 22.9862C21.1354 23.0493 20.3869 22.926 19.702 22.6275L19.758 22.5255C19.972 22.1195 20.145 21.6885 20.269 21.2365C20.7259 21.4421 21.227 21.53 21.7266 21.4921C22.2262 21.4543 22.7083 21.2919 23.129 21.0199C23.5498 20.7478 23.8956 20.3747 24.1351 19.9346C24.3746 19.4946 24.5 19.0015 24.5 18.5005V13.2505C24.5 13.0517 24.4211 12.8611 24.2807 12.7205C24.1402 12.5799 23.9497 12.5008 23.751 12.5005H20.418C20.2844 11.9363 20.0019 11.4184 19.6 11.0005H23.75ZM14 3.00049C14.4596 3.00049 14.9148 3.09102 15.3394 3.26691C15.764 3.4428 16.1499 3.70061 16.4749 4.02561C16.7999 4.35062 17.0577 4.73646 17.2336 5.1611C17.4095 5.58574 17.5 6.04086 17.5 6.50049C17.5 6.96011 17.4095 7.41524 17.2336 7.83988C17.0577 8.26452 16.7999 8.65036 16.4749 8.97536C16.1499 9.30037 15.764 9.55818 15.3394 9.73407C14.9148 9.90996 14.4596 10.0005 14 10.0005C13.0717 10.0005 12.1815 9.63174 11.5251 8.97536C10.8687 8.31898 10.5 7.42875 10.5 6.50049C10.5 5.57223 10.8687 4.68199 11.5251 4.02561C12.1815 3.36924 13.0717 3.00049 14 3.00049ZM22.003 4.00049C22.397 4.00049 22.7871 4.07809 23.1511 4.22885C23.515 4.37961 23.8457 4.60059 24.1243 4.87917C24.4029 5.15774 24.6239 5.48846 24.7746 5.85244C24.9254 6.21641 25.003 6.60652 25.003 7.00049C25.003 7.39445 24.9254 7.78456 24.7746 8.14854C24.6239 8.51252 24.4029 8.84323 24.1243 9.12181C23.8457 9.40038 23.515 9.62136 23.1511 9.77213C22.7871 9.92289 22.397 10.0005 22.003 10.0005C21.2074 10.0005 20.4443 9.68442 19.8817 9.12181C19.3191 8.5592 19.003 7.79614 19.003 7.00049C19.003 6.20484 19.3191 5.44178 19.8817 4.87917C20.4443 4.31656 21.2074 4.00049 22.003 4.00049ZM5.997 4.00049C6.39097 4.00049 6.78107 4.07809 7.14505 4.22885C7.50903 4.37961 7.83975 4.60059 8.11832 4.87917C8.3969 5.15774 8.61788 5.48846 8.76864 5.85244C8.9194 6.21641 8.997 6.60652 8.997 7.00049C8.997 7.39445 8.9194 7.78456 8.76864 8.14854C8.61788 8.51252 8.3969 8.84323 8.11832 9.12181C7.83975 9.40038 7.50903 9.62136 7.14505 9.77213C6.78107 9.92289 6.39097 10.0005 5.997 10.0005C5.20135 10.0005 4.43829 9.68442 3.87568 9.12181C3.31307 8.5592 2.997 7.79614 2.997 7.00049C2.997 6.20484 3.31307 5.44178 3.87568 4.87917C4.43829 4.31656 5.20135 4.00049 5.997 4.00049ZM14 4.50049C13.4696 4.50049 12.9609 4.7112 12.5858 5.08627C12.2107 5.46135 12 5.97006 12 6.50049C12 7.03092 12.2107 7.53963 12.5858 7.9147C12.9609 8.28977 13.4696 8.50049 14 8.50049C14.5304 8.50049 15.0391 8.28977 15.4142 7.9147C15.7893 7.53963 16 7.03092 16 6.50049C16 5.97006 15.7893 5.46135 15.4142 5.08627C15.0391 4.7112 14.5304 4.50049 14 4.50049ZM22.003 5.50049C21.806 5.50049 21.611 5.53929 21.429 5.61467C21.247 5.69005 21.0816 5.80054 20.9423 5.93983C20.8031 6.07912 20.6926 6.24447 20.6172 6.42646C20.5418 6.60845 20.503 6.80351 20.503 7.00049C20.503 7.19747 20.5418 7.39253 20.6172 7.57451C20.6926 7.7565 20.8031 7.92186 20.9423 8.06115C21.0816 8.20044 21.247 8.31093 21.429 8.38631C21.611 8.46169 21.806 8.50049 22.003 8.50049C22.4008 8.50049 22.7824 8.34245 23.0637 8.06115C23.345 7.77984 23.503 7.39831 23.503 7.00049C23.503 6.60266 23.345 6.22113 23.0637 5.93983C22.7824 5.65852 22.4008 5.50049 22.003 5.50049ZM5.997 5.50049C5.80002 5.50049 5.60496 5.53929 5.42298 5.61467C5.24099 5.69005 5.07563 5.80054 4.93634 5.93983C4.79705 6.07912 4.68656 6.24447 4.61118 6.42646C4.5358 6.60845 4.497 6.80351 4.497 7.00049C4.497 7.19747 4.5358 7.39253 4.61118 7.57451C4.68656 7.7565 4.79705 7.92186 4.93634 8.06115C5.07563 8.20044 5.24099 8.31093 5.42298 8.38631C5.60496 8.46169 5.80002 8.50049 5.997 8.50049C6.39483 8.50049 6.77636 8.34245 7.05766 8.06115C7.33896 7.77984 7.497 7.39831 7.497 7.00049C7.497 6.60266 7.33896 6.22113 7.05766 5.93983C6.77636 5.65852 6.39483 5.50049 5.997 5.50049Z" fill="#0082AB"/>
</svg>
