<svg width="55" height="55" viewBox="0 0 55 55" fill="none" xmlns="http://www.w3.org/2000/svg">
<path d="M43.386 3.67954C43.8921 3.17361 44.5784 2.8894 45.294 2.8894C46.0096 2.8894 46.6959 3.17361 47.2019 3.67954L51.258 7.73562C51.764 8.2417 52.0482 8.92799 52.0482 9.64358C52.0482 10.3592 51.764 11.0455 51.258 11.5515L47.2019 15.6076C46.6959 16.1135 46.0096 16.3977 45.294 16.3977C44.5784 16.3977 43.8921 16.1135 43.386 15.6076L39.3273 11.5515C38.8213 11.0455 38.5371 10.3592 38.5371 9.64358C38.5371 8.92799 38.8213 8.2417 39.3273 7.73562L43.386 3.67954ZM15.606 46.0755H19.654V35.2809H8.85938V39.3288C8.85938 41.1182 9.57018 42.8342 10.8354 44.0994C12.1007 45.3647 13.8167 46.0755 15.606 46.0755ZM19.654 21.7876V32.5822H8.85938V21.7876H19.654ZM33.1473 32.5822H22.3527V21.7876H33.1473V32.5822ZM22.3527 35.2809H33.1473V46.0755H22.3527V35.2809ZM35.846 21.7876V32.5822H46.6406V21.7876H35.846ZM35.846 35.2809H46.6406V39.3288C46.6406 41.1182 45.9298 42.8342 44.6646 44.0994C43.3993 45.3647 41.6833 46.0755 39.894 46.0755H35.846V35.2809ZM8.85938 19.0889H19.654V8.29425H15.606C13.8167 8.29425 12.1007 9.00505 10.8354 10.2703C9.57018 11.5355 8.85938 13.2516 8.85938 15.0409V19.0889ZM22.3527 19.0889V8.29425H33.1473V19.0889H22.3527Z" fill="#0082AB"/>
</svg>
