<svg width="38" height="38" viewBox="0 0 38 38" fill="none" xmlns="http://www.w3.org/2000/svg">
<path d="M35.625 22.5625C35.6253 21.4693 35.3237 20.3972 34.7536 19.4644C34.1835 18.5317 33.3669 17.7744 32.3938 17.2761C31.4208 16.7778 30.329 16.5578 29.2389 16.6404C28.1488 16.723 27.1027 17.105 26.2158 17.7442C25.329 18.3834 24.6358 19.255 24.2127 20.2631C23.7896 21.2711 23.653 22.3764 23.818 23.4571C23.983 24.5378 24.4432 25.5519 25.1478 26.3878C25.8524 27.2237 26.774 27.8488 27.8113 28.1942C27.6099 29.1217 27.0972 29.9523 26.3584 30.548C25.6195 31.1438 24.6991 31.4687 23.75 31.4688H20.1875C19.0852 31.4688 18.028 31.0309 17.2486 30.2514C16.4691 29.472 16.0312 28.4148 16.0312 27.3125V21.8055C20.7412 20.9475 24.3438 16.7452 24.3438 11.7518V5.9375C24.3438 5.54764 24.267 5.16159 24.1178 4.80141C23.9686 4.44122 23.7499 4.11395 23.4742 3.83828C23.1985 3.5626 22.8713 3.34393 22.5111 3.19473C22.1509 3.04554 21.7649 2.96875 21.375 2.96875H19C18.5276 2.96875 18.0745 3.15642 17.7405 3.49047C17.4064 3.82452 17.2188 4.27758 17.2188 4.75C17.2188 5.22242 17.4064 5.67549 17.7405 6.00953C18.0745 6.34358 18.5276 6.53125 19 6.53125H20.7812V11.7518C20.7812 15.3737 17.8912 18.3602 14.3376 18.4062C13.4725 18.4179 12.6138 18.2575 11.8113 17.9345C11.0087 17.6114 10.2784 17.1322 9.66257 16.5245C9.04678 15.9169 8.55784 15.193 8.22415 14.3948C7.89047 13.5966 7.71867 12.7401 7.71875 11.875V6.53125H9.5C9.97242 6.53125 10.4255 6.34358 10.7595 6.00953C11.0936 5.67549 11.2812 5.22242 11.2812 4.75C11.2812 4.27758 11.0936 3.82452 10.7595 3.49047C10.4255 3.15642 9.97242 2.96875 9.5 2.96875H7.125C6.33764 2.96875 5.58253 3.28153 5.02578 3.83828C4.46903 4.39503 4.15625 5.15014 4.15625 5.9375V11.875C4.15635 14.243 4.98901 16.5356 6.50858 18.3518C8.02815 20.168 10.1379 21.392 12.4688 21.8099V27.3125C12.4711 29.3589 13.2851 31.3208 14.7321 32.7679C16.1792 34.2149 18.1411 35.0289 20.1875 35.0312H23.75C25.6349 35.029 27.454 34.3379 28.8649 33.088C30.2759 31.8381 31.1813 30.1156 31.4109 28.2447C32.6289 27.8733 33.6957 27.1208 34.4542 26.098C35.2128 25.0752 35.6232 23.8359 35.625 22.5625ZM29.6875 24.9375C29.2178 24.9375 28.7586 24.7982 28.368 24.5372C27.9775 24.2763 27.673 23.9053 27.4933 23.4714C27.3135 23.0374 27.2665 22.5599 27.3581 22.0992C27.4498 21.6385 27.676 21.2153 28.0081 20.8831C28.3403 20.551 28.7635 20.3248 29.2242 20.2331C29.6849 20.1415 30.1624 20.1885 30.5964 20.3683C31.0303 20.548 31.4013 20.8525 31.6622 21.243C31.9232 21.6336 32.0625 22.0928 32.0625 22.5625C32.0625 23.1924 31.8123 23.7965 31.3669 24.2419C30.9215 24.6873 30.3174 24.9375 29.6875 24.9375Z" fill="#F79007"/>
</svg>
