<svg width="29" height="29" viewBox="0 0 29 29" fill="none" xmlns="http://www.w3.org/2000/svg">
<path d="M7.24805 10.874C7.24805 12.7968 8.01188 14.6409 9.37152 16.0005C10.7312 17.3602 12.5752 18.124 14.498 18.124C16.4209 18.124 18.2649 17.3602 19.6246 16.0005C20.9842 14.6409 21.748 12.7968 21.748 10.874C21.748 8.9512 20.9842 7.10714 19.6246 5.7475C18.2649 4.38786 16.4209 3.62402 14.498 3.62402C12.5752 3.62402 10.7312 4.38786 9.37152 5.7475C8.01188 7.10714 7.24805 8.9512 7.24805 10.874Z" stroke="#0082AB" stroke-width="2.41667" stroke-linecap="round" stroke-linejoin="round"/>
<path d="M14.4986 18.124L18.607 25.2411L20.5379 21.3346L24.8855 21.6149L20.7771 14.499M8.21771 14.499L4.10938 21.6161L8.45696 21.3346L10.3879 25.2399L14.4962 18.124" stroke="#0082AB" stroke-width="2.41667" stroke-linecap="round" stroke-linejoin="round"/>
</svg>
